<?xml version="1.0" encoding="UTF-8"?><svg xmlns="http://www.w3.org/2000/svg" viewBox="0 0 841.89 595.28"><defs><style>.cls-1{fill:#669f59;}.cls-1,.cls-2,.cls-3,.cls-4,.cls-5,.cls-6{stroke-miterlimit:10;}.cls-1,.cls-3,.cls-5{stroke-width:2px;}.cls-1,.cls-5,.cls-6{stroke:#111110;}.cls-2{stroke:#3f3f3d;stroke-width:2.55px;}.cls-2,.cls-4{fill:none;}.cls-3{fill:#202626;stroke:#020202;}.cls-4{stroke:#494947;stroke-width:2.2px;}.cls-5{fill:#7f8fa6;}.cls-6{fill:#fff;stroke-width:2.39px;}.cls-7{fill:#1d1d1b;font-family:ArialNarrow-Bold, Arial;font-size:46px;font-weight:700;}</style></defs><g id="Volant"><circle class="cls-3" cx="423.23" cy="275.84" r="212.71"/><circle class="cls-6" cx="419.61" cy="276.62" r="174.75"/><path class="cls-4" d="m262,138.93s5.85,5.48,15.98,8.98c6.47,2.23,14.15.24,17.69,3.82"/><path class="cls-2" d="m582.51,136.53c-1.05.95-6.72,3.98-19.52,12.4-6.83,4.5-16.88-.4-19.22,2.81"/><path class="cls-2" d="m632.76,245.76c-.85.11-4.49,1.29-16.01,6.59-7.43,3.42-18.39-2.92-22.88-1.48"/><path class="cls-4" d="m213.49,246.78s3.05.22,14.97,6.3c6.1,3.11,12.26.6,16.74,1.19"/><path class="cls-4" d="m362.78,443.24s-1.47,4.64-6.07,16.94c-2.4,6.41.25,12.97-1.08,16.39"/><path class="cls-4" d="m470.62,445.15s2.02,6.6,3.62,20.33c.79,6.8-1.38,12.56-.67,15.94"/></g><g id="Mains"><path class="cls-5" d="m285.05,164.15l-8.65,12.43c-7.86,11.3-14.41,23.46-19.53,36.24l-4.01,10.03c-1.98,4.94-3.4,10.09-4.04,15.37-.9,7.45-.27,13.96,4.23,16.3l15.72,8.18c5.78,3.01,12.91.88,16.09-4.81l41.31-73.92c3.43-6.14,1.16-13.9-5.04-17.22l-14.84-7.94c-6.42-3.44-14.68-2.81-21.24,5.35Z"/><path class="cls-1" d="m430.24,232.24c-2.9,4.24-30.1,38.28-43.81,47.6-4.36,2.96-12.64-.74-16.24-4.62-9.54-10.28-2.63-33.81,1.58-48.82,2.8-10,8.62-18.89,16.65-25.47,13.06-10.7,34.83-27.1,51.41-32.37,25.33-8.06,76.85,15.7,76.85,15.7l37.31,73.56s-20.41,13.81-20.1,25.92c.03,1.1-.23,2.17-.59,3.2-1.69,4.77-9.64,21.82-14.06,21.82-5.58,0-88.99-76.52-88.99-76.52Z"/><path class="cls-1" d="m417.41,370.82c0-9.18-10.35-16.49-19.54-16.49s-10.78,3.45-16.98,10.22c-8.48,9.27-8.1,22.91.35,26.52,9.07,3.87,36.16-3.63,36.16-20.26Z"/><path class="cls-1" d="m389.27,354.77c9.63-15.92-3.29-27.96-15.13-27.96s-18.48,12.63-26.48,22.73c-10.93,13.81-5.85,26.64,5.04,32.02,11.69,5.77,24.77-7.27,36.57-26.78Z"/><path class="cls-1" d="m363.74,331.17c9.63-15.92-3.29-27.96-15.13-27.96s-18.48,12.63-26.48,22.73c-10.93,13.81-5.85,26.64,5.04,32.02,11.69,5.77,24.77-7.27,36.57-26.78Z"/><path class="cls-1" d="m310.99,284.9s-23.55,20.04-12.04,35.39c11.51,15.34,23.18,5.64,23.18,5.64l8.62-11.44-19.76-29.58"/><path class="cls-5" d="m417.76,179.53s-34.01-25.53-91.58,4.44l-41.31,73.92s28.98,21.55,45.89,56.6c0,0,33.19-29.58,36.35,12.32,0,0,28.88-5.12,25.53,24.57,0,0,42.81,7.96,10.58,36.32-2.84,2.5,3.28,4.9,5.16,5.2,6.28,1.01,18.4,2.07,26.72-2.73,4.69-2.71,5.75-8.66,2.5-12.99l-.03-.04-9.94-10.2s19.75,23.41,34.52,14.91c14.78-8.5,10.2-26.97-11.51-41.58l21.4,17.47c3.27,2.67,7.38,4.13,11.59,4,7.63-.24,18.88-2.39,15.83-18.58,0,0,31.42,3.3,25.68-25.5-.71-3.55-3.16-6.51-5.91-8.87l-88.99-76.52-41.1,44.41c-1.67,1.8-3.92,2.94-6.36,3.19-6.8.71-20.1-1.48-15.68-26.51q6.12-34.71,16.41-47.79c10.29-13.08,34.25-26.02,34.25-26.02"/><line class="cls-5" x1="468.69" y1="320.38" x2="499.46" y2="343.13"/><path class="cls-1" d="m590.41,235.85l-4.92-14.32c-4.47-13.02-10.41-25.48-17.71-37.16l-5.72-9.16c-2.82-4.51-6.14-8.71-10.02-12.34-5.48-5.13-11.11-8.46-15.65-6.22l-15.89,7.85c-5.84,2.89-8.33,9.9-5.62,15.83l35.25,77c2.93,6.4,10.53,9.15,16.88,6.1l15.18-7.29c6.57-3.15,10.93-10.19,8.23-20.3Z"/></g><g id="Texte"><text class="cls-7" transform="translate(304.64 394.5) rotate(33.09) scale(1.16 1)"><tspan x="0" y="0">D</tspan></text><text class="cls-7" transform="translate(333.23 412.77) rotate(26.5) scale(1.16 1)"><tspan x="0" y="0">a</tspan></text><text class="cls-7" transform="translate(356.74 424.13) rotate(21.49) scale(1.16 1)"><tspan x="0" y="0">i</tspan></text><text class="cls-7" transform="translate(369.29 429.03) rotate(17.75) scale(1.16 1)"><tspan x="0" y="0">l</tspan></text><text class="cls-7" transform="translate(382.97 433.66) rotate(11.38) scale(1.16 1)"><tspan x="0" y="0">y</tspan></text><text class="cls-7" transform="translate(409.43 438.46) rotate(4.08) scale(1.16 1)"><tspan x="0" y="0"> </tspan></text><text class="cls-7" transform="translate(425.11 440.14) rotate(-5.79) scale(1.16 1)"><tspan x="0" y="0">D</tspan></text><text class="cls-7" transform="translate(460.43 435.41) rotate(-17.36) scale(1.16 1)"><tspan x="0" y="0">r</tspan></text><text class="cls-7" transform="translate(478.84 429.35) rotate(-24.07) scale(1.16 1)"><tspan x="0" y="0">i</tspan></text><text class="cls-7" transform="translate(492.54 423.46) rotate(-31.75) scale(1.16 1)"><tspan x="0" y="0">v</tspan></text><text class="cls-7" transform="translate(515.71 408.77) rotate(-40.44) scale(1.16 1)"><tspan x="0" y="0">e</tspan></text><text class="cls-7" transform="translate(535.61 391.37) rotate(-46.45) scale(1.16 1)"><tspan x="0" y="0">r</tspan></text><text class="cls-7" transform="translate(548.58 377.8) rotate(-51.4) scale(1.16 1)"><tspan x="0" y="0">s</tspan></text></g></svg>