<?xml version="1.0" encoding="utf-8"?>
<!-- Generator: Adobe Illustrator 27.5.0, SVG Export Plug-In . SVG Version: 6.00 Build 0)  -->
<svg version="1.1" id="Calque_1" xmlns="http://www.w3.org/2000/svg" xmlns:xlink="http://www.w3.org/1999/xlink" x="0px" y="0px"
	 viewBox="0 0 623.6 447.1" style="enable-background:new 0 0 623.6 447.1;" xml:space="preserve">
<style type="text/css">
	.st0{fill:#669F59;}
	.st1{opacity:0.9;fill:#FFFFFF;enable-background:new    ;}
	.st2{fill:#F5F5F5;}
	.st3{opacity:0.3;}
	.st4{fill:#FFFFFF;}
	.st5{fill:#7F8FA6;}
	.st6{opacity:0.6;fill:#7F8FA6;enable-background:new    ;}
	.st7{opacity:0.6;fill:#FFFFFF;enable-background:new    ;}
	.st8{fill:#263238;}
	.st9{opacity:0.5;fill:#FFFFFF;enable-background:new    ;}
	.st10{opacity:0.2;fill:#FFFFFF;enable-background:new    ;}
	.st11{opacity:0.2;enable-background:new    ;}
	.st12{opacity:0.4;fill:#FFFFFF;enable-background:new    ;}
	.st13{opacity:0.3;enable-background:new    ;}
	.st14{opacity:0.2;}
	.st15{opacity:0.7;}
	.st16{fill:#E4897B;}
	.st17{fill:#DE5753;}
	.st18{fill:#FFB573;}
	.st19{fill:#ED893E;}
	.st20{opacity:0.3;fill:#FFFFFF;enable-background:new    ;}
	.st21{opacity:0.1;fill:#FFFFFF;enable-background:new    ;}
	.st22{opacity:0.6;fill:#263238;enable-background:new    ;}
	.st23{opacity:0.7;fill:#FFFFFF;enable-background:new    ;}
</style>
<path class="st0" d="M380.9,158.1c-83.4-16.9-104.1-181.8-234.1-84.9c-92.2,68.7-46.7,223.2,65.5,199.5
	c67.9-14.4,57.6-15,112.9,12.1c56.1,27.5,118.9,39.6,183.6-17.2c33.5-29.3,49.8-97.7,20.7-131.2C493.2,94.5,431.8,168.4,380.9,158.1
	z"/>
<path class="st1" d="M380.9,158.1c-83.4-16.9-104.1-181.8-234.1-84.9c-92.2,68.7-46.7,223.2,65.5,199.5
	c67.9-14.4,57.6-15,112.9,12.1c56.1,27.5,118.9,39.6,183.6-17.2c33.5-29.3,49.8-97.7,20.7-131.2C493.2,94.5,431.8,168.4,380.9,158.1
	z"/>
<path class="st2" d="M319.8,425.2c133.5,0,241.8-6.1,241.8-13.6c0-7.5-108.3-13.6-241.8-13.6S78,404.1,78,411.6
	C78,419.1,186.3,425.2,319.8,425.2z"/>
<path class="st0" d="M285.4,152.1c-1.6-1-3.5-1.6-5.4-1.6c-1.1-1.4,0-3.4,1.2-4.8c1.2-1.4,2.7-2.9,2.3-4.6c-0.5-2.6-4.3-2.9-7.1-2.5
	c-0.9-1.6-0.8-3.6-1.2-5.4c-0.4-1.8-1.8-3.8-3.7-3.6c-1.9,0.2-3,2-4.8,2.4c-2.1,0.4-3.7-1.5-5.3-2.8c-0.2-0.2-0.4-0.3-0.6-0.5
	c0.6-5.4,5.9-4.3,10.5-4.8c3.6-0.4-5.4-9.5,1.9-12c1.4-0.3,2.7-1.1,3.6-2.2c0.4-0.8,0.5-1.8,0.2-2.6c-0.2-0.9-0.8-1.6-1.6-2.2
	c-1.6-1-3.5-1.6-5.4-1.6c-1.1-1.4,0-3.4,1.2-4.8c1.2-1.4,2.7-2.9,2.3-4.6c-0.5-2.6-4.3-2.9-7.1-2.5c-0.9-1.6-0.8-3.6-1.2-5.4
	c-0.4-1.8-1.8-3.8-3.7-3.6c-2,0.2-3,2-4.8,2.4c-2.1,0.4-3.7-1.5-5.3-2.8c-1.6-1.4-4.3-2.3-5.5-0.7c-0.7,1-0.4,2.4-1.1,3.4
	c-1.2,1.7-4.1,0.5-5.7-0.9s-4.4-2.6-5.8-0.9c-0.3,0.6-0.6,1.2-0.8,1.8c-0.2,0.4-0.5,0.8-0.8,1.2c-0.3-1.2-0.3-2.5-0.6-3.8
	c-0.4-1.8-1.8-3.8-3.7-3.6c-2,0.2-3,2-4.8,2.3c-2.1,0.4-3.7-1.5-5.3-2.8c-1.6-1.4-4.3-2.4-5.5-0.7c-0.7,1-0.4,2.4-1.1,3.4
	c-0.2,0.2-0.4,0.4-0.6,0.5c-0.6-0.1-1.2-0.2-1.8-0.2c-1.1-1.4,0-3.4,1.2-4.8c1.2-1.4,2.7-2.9,2.3-4.6c-0.5-2.6-4.3-2.9-7.1-2.5
	c-0.9-1.6-0.8-3.6-1.2-5.4c-0.4-1.8-1.8-3.8-3.7-3.6c-2,0.2-3,2-4.8,2.4c-2.1,0.4-3.7-1.5-5.3-2.8c-1.6-1.4-4.3-2.4-5.5-0.7
	c-0.7,1-0.4,2.4-1.1,3.4c-1.2,1.7-4.1,0.5-5.8-0.9s-4.4-2.6-5.8-0.9c-0.3,0.6-0.6,1.2-0.8,1.8c-0.9,2.3-3.6,3.3-5.7,4.7
	s-3.9,4.2-2.2,6.1c0.8,0.9,2.3,1.4,2.6,2.5c0.4,1.5-1.1,2.7-2.4,3.6c-0.8,0.8-1.4,1.8-1.6,2.9c-0.3,1.1-0.2,2.2,0.2,3.3
	c-0.6,0.5-1.4,0.9-2.1,1.1c-2.1,0.4-3.7-1.5-5.3-2.8c-1.6-1.4-4.3-2.3-5.5-0.7c-0.7,1-0.4,2.5-1.1,3.4c-1.2,1.7-4.1,0.5-5.7-0.9
	s-4.4-2.6-5.8-0.9c-0.3,0.6-0.6,1.2-0.8,1.8c-0.9,2.3-3.6,3.3-5.7,4.7s-3.8,4.3-2.2,6.1c0.8,0.9,2.1,1.3,2.6,2.4
	c-1.4-0.6-2.9-0.7-3.7,0.4c-0.8,1.1-0.4,2.4-1.1,3.4c-1.2,1.7-4.1,0.5-5.8-0.9c-1.7-1.3-4.4-2.6-5.8-0.9c-0.3,0.6-0.6,1.2-0.8,1.8
	c-0.9,2.3-3.6,3.3-5.7,4.7c-2.1,1.4-3.8,4.3-2.2,6.1c0.8,0.9,2.3,1.4,2.6,2.5c0.4,1.4-1.1,2.6-2.4,3.6c-2.1,1.5-2.7,6.4-0.1,7.8
	c1.1,0.6,2.7,0.9,2.9,2c0.2,1.2-1,1.8-1.7,2.6c-0.5,0.6-0.9,1.2-1.1,1.9c-0.2,0.7-0.3,1.4-0.1,2.2c0.1,0.7,0.4,1.4,0.8,2
	c0.4,0.6,1,1.1,1.6,1.5c0.6,0.3,1.4,0.6,1.6,1.2c0.1,0.5,0,1-0.2,1.4c-0.3,0.9-0.4,1.8-0.4,2.7c0,0.3,0.1,0.6,0.3,0.9
	c0.2,0.2,0.5,0.3,0.8,0.3c3.7,0.3,5.7-0.9,7.8,2.4c0.2,0.3,0.4,0.6,0.7,0.8c0.3,0.2,0.7,0.3,1,0.3c2.6,0.3,4.4-1.2,6.8-1.3
	c3.3-0.3,3.9,1.4,6.8,2.9c4.5,2.3,6.8,1.1,7.8-1.8c0.3-0.8,0.5-1.7,0.5-2.6c0-0.7,0.2-1.3,0.5-1.9c0.3-0.6,0.7-1.1,1.3-1.5h0.1
	c2.4,0.3,4.1-0.9,6.2-1.3l1.3-0.1c2.6,0.1,3.3,1.6,5.9,2.9c1.2,0.7,2.5,1.1,3.9,1.2c0.3,1.4-1.2,2.5-2.4,3.4
	c-2.1,1.5-2.7,6.4-0.1,7.8c1.1,0.6,2.7,0.9,2.9,2s-1,1.8-1.7,2.6c-0.5,0.6-0.8,1.2-1.1,1.9c-0.2,0.7-0.2,1.4-0.1,2.1
	c0.1,0.7,0.4,1.4,0.8,2c0.4,0.6,1,1.1,1.6,1.5c0.6,0.3,1.4,0.6,1.6,1.2c0.1,0.5,0,1-0.2,1.4c-0.3,0.9-0.4,1.8-0.4,2.7
	c0,0.1,0,0.3,0,0.4c0,0.1,0.1,0.3,0.2,0.4c0.1,0.1,0.2,0.2,0.4,0.2c0.1,0.1,0.3,0.1,0.5,0c3.7,0.3,5.7-0.9,7.8,2.4
	c0.2,0.3,0.4,0.6,0.7,0.9c0.3,0.2,0.7,0.3,1,0.3c2.6,0.3,4.4-1.2,6.8-1.3c3.3-0.3,3.9,1.4,6.8,2.9c4.5,2.3,6.8,1.1,7.8-1.8
	c0.3-0.8,0.5-1.7,0.5-2.6c0.6-5.4,5.9-4.3,10.5-4.8c0.2,0,0.3,0,0.4-0.1c0.1-0.1,0.2-0.2,0.3-0.3h0.3c2.6,0.3,4.4-1.2,6.8-1.3
	c3.3-0.3,3.9,1.4,6.8,2.9c4.5,2.3,6.8,1.1,7.8-1.8c0.3-0.8,0.5-1.7,0.5-2.6c0.5-4.2,3.8-4.5,7.5-4.6c0,0.8,0.3,1.6,0.7,2.3
	c0.4,0.7,1.1,1.3,1.8,1.7c0.6,0.3,1.4,0.6,1.6,1.2c0.1,0.5,0,1-0.2,1.4c-0.3,0.9-0.4,1.8-0.4,2.7c0,0.1,0,0.3,0,0.4
	c0,0.1,0.1,0.3,0.2,0.4c0.1,0.1,0.2,0.2,0.4,0.2c0.1,0.1,0.3,0.1,0.5,0.1c3.7,0.3,5.7-0.9,7.8,2.4c0.2,0.3,0.4,0.6,0.7,0.8
	c0.3,0.2,0.7,0.3,1,0.3c2.6,0.3,4.4-1.2,6.8-1.3c3.3-0.3,3.9,1.4,6.8,2.9c4.5,2.3,6.8,1.1,7.8-1.8c0.3-0.8,0.4-1.7,0.5-2.6
	c0.6-5.4,5.9-4.3,10.5-4.8c3.6-0.4-5.4-9.5,1.9-12c1.5-0.3,2.8-1.1,3.7-2.3c0.4-0.8,0.5-1.8,0.2-2.6
	C286.7,153.4,286.2,152.7,285.4,152.1z M236.9,157.7c0.2,0.1,0.4,0.3,0.5,0.4c0.1,0.2,0.2,0.4,0.3,0.6c0.1,0.3,0,0.7-0.2,0.9
	C237.2,159,237.1,158.3,236.9,157.7L236.9,157.7z M190.1,110.4c-1.4-0.4-2.7-1.1-3.6-2.2C187.8,108.8,189,109.5,190.1,110.4z
	 M227.1,123.3c0.2-0.5,0.5-1,0.9-1.5c0.4,0.2,0.7,0.5,0.9,0.9c0,0.1,0,0.2,0,0.4c-0.3-0.1-0.5-0.1-0.8-0.1
	C227.7,123.1,227.4,123.2,227.1,123.3z M232.1,128c2.1,0,3.6,0,5.2,2.4c0.2,0.3,0.4,0.6,0.7,0.8c0.3,0.2,0.7,0.3,1,0.3
	c1.3,0.1,2.7-0.1,3.9-0.6c-0.1,0.3-0.2,0.7-0.4,1c-0.5,1.1-1.4,2-2.5,2.7c-0.5-2.6-4.3-2.9-7.1-2.5
	C232.4,130.8,232.1,129.4,232.1,128L232.1,128z M249.1,131.1c-0.2-0.2-0.5-0.4-0.8-0.6c1.1,0.5,2.1,1.1,3,1.9
	C250.5,132,249.8,131.6,249.1,131.1L249.1,131.1z"/>
<path class="st0" d="M148.8,199.9c-1.3-0.8-2.7-1.2-4.3-1.2c-0.9-1.1,0-2.7,0.9-3.8c0.9-1.1,2.1-2.3,1.8-3.6c-0.4-2.1-3.4-2.3-5.6-2
	c-0.7-1.3-0.6-2.8-1-4.2c-0.3-1.4-1.4-3-2.9-2.9c-1.5,0.1-2.4,1.6-3.7,1.8c-1.6,0.3-3-1.2-4.2-2.2c-1.2-1-3.4-1.8-4.3-0.5
	c-0.6,0.8-0.3,1.9-0.9,2.7c-1,1.3-3.2,0.4-4.5-0.7c-1.3-1-3.5-2-4.5-0.7c-0.3,0.4-0.5,0.9-0.6,1.4c-0.7,1.8-2.8,2.6-4.5,3.7
	c-1.6,1.1-3,3.3-1.8,4.8c0.6,0.7,1.8,1.1,2.1,2c0.4,1.1-0.9,2.1-1.9,2.8c-1.6,1.2-2.1,5-0.1,6.2c0.8,0.5,2.1,0.7,2.3,1.6
	c0.2,0.9-0.7,1.4-1.4,2c-0.4,0.4-0.7,0.9-0.9,1.5c-0.2,0.6-0.2,1.1-0.1,1.7c0.1,0.6,0.3,1.1,0.6,1.6c0.3,0.5,0.8,0.9,1.3,1.2
	c0.5,0.3,1.1,0.5,1.2,1c0.1,0.4,0,0.8-0.2,1.1c-0.2,0.7-0.3,1.4-0.3,2.1c0,0.2,0.1,0.5,0.2,0.7c0.2,0.1,0.4,0.2,0.6,0.2
	c3,0.3,4.5-0.7,6.2,1.9c0.2,0.3,0.4,0.5,0.6,0.7c0.2,0.1,0.5,0.2,0.8,0.2c2,0.3,3.4-0.9,5.3-1.1c2.6-0.2,3.1,1.1,5.3,2.3
	c3.5,1.8,5.3,0.9,6.1-1.5c0.2-0.7,0.4-1.3,0.4-2c0.5-4.2,4.7-3.4,8.3-3.8c2.8-0.3-4.3-7.5,1.5-9.4c1.1-0.2,2.1-0.8,2.8-1.7
	c0.3-0.7,0.4-1.4,0.2-2.2C149.9,200.9,149.4,200.3,148.8,199.9z"/>
<g class="st3">
	<path class="st4" d="M285.4,152.1c-1.6-1-3.5-1.6-5.4-1.6c-1.1-1.4,0-3.4,1.2-4.8c1.2-1.4,2.7-2.9,2.3-4.6
		c-0.5-2.6-4.3-2.9-7.1-2.5c-0.9-1.6-0.8-3.6-1.2-5.4c-0.4-1.8-1.8-3.8-3.7-3.6c-1.9,0.2-3,2-4.8,2.4c-2.1,0.4-3.7-1.5-5.3-2.8
		c-0.2-0.2-0.4-0.3-0.6-0.5c0.6-5.4,5.9-4.3,10.5-4.8c3.6-0.4-5.4-9.5,1.9-12c1.4-0.3,2.7-1.1,3.6-2.2c0.4-0.8,0.5-1.8,0.2-2.6
		c-0.2-0.9-0.8-1.6-1.6-2.2c-1.6-1-3.5-1.6-5.4-1.6c-1.1-1.4,0-3.4,1.2-4.8c1.2-1.4,2.7-2.9,2.3-4.6c-0.5-2.6-4.3-2.9-7.1-2.5
		c-0.9-1.6-0.8-3.6-1.2-5.4c-0.4-1.8-1.8-3.8-3.7-3.6c-2,0.2-3,2-4.8,2.4c-2.1,0.4-3.7-1.5-5.3-2.8c-1.6-1.4-4.3-2.3-5.5-0.7
		c-0.7,1-0.4,2.4-1.1,3.4c-1.2,1.7-4.1,0.5-5.7-0.9s-4.4-2.6-5.8-0.9c-0.3,0.6-0.6,1.2-0.8,1.8c-0.2,0.4-0.5,0.8-0.8,1.2
		c-0.3-1.2-0.3-2.5-0.6-3.8c-0.4-1.8-1.8-3.8-3.7-3.6c-2,0.2-3,2-4.8,2.3c-2.1,0.4-3.7-1.5-5.3-2.8c-1.6-1.4-4.3-2.4-5.5-0.7
		c-0.7,1-0.4,2.4-1.1,3.4c-0.2,0.2-0.4,0.4-0.6,0.5c-0.6-0.1-1.2-0.2-1.8-0.2c-1.1-1.4,0-3.4,1.2-4.8c1.2-1.4,2.7-2.9,2.3-4.6
		c-0.5-2.6-4.3-2.9-7.1-2.5c-0.9-1.6-0.8-3.6-1.2-5.4c-0.4-1.8-1.8-3.8-3.7-3.6c-2,0.2-3,2-4.8,2.4c-2.1,0.4-3.7-1.5-5.3-2.8
		c-1.6-1.4-4.3-2.4-5.5-0.7c-0.7,1-0.4,2.4-1.1,3.4c-1.2,1.7-4.1,0.5-5.8-0.9s-4.4-2.6-5.8-0.9c-0.3,0.6-0.6,1.2-0.8,1.8
		c-0.9,2.3-3.6,3.3-5.7,4.7s-3.9,4.2-2.2,6.1c0.8,0.9,2.3,1.4,2.6,2.5c0.4,1.5-1.1,2.7-2.4,3.6c-0.8,0.8-1.4,1.8-1.6,2.9
		c-0.3,1.1-0.2,2.2,0.2,3.3c-0.6,0.5-1.4,0.9-2.1,1.1c-2.1,0.4-3.7-1.5-5.3-2.8c-1.6-1.4-4.3-2.3-5.5-0.7c-0.7,1-0.4,2.5-1.1,3.4
		c-1.2,1.7-4.1,0.5-5.7-0.9s-4.4-2.6-5.8-0.9c-0.3,0.6-0.6,1.2-0.8,1.8c-0.9,2.3-3.6,3.3-5.7,4.7s-3.8,4.3-2.2,6.1
		c0.8,0.9,2.1,1.3,2.6,2.4c-1.4-0.6-2.9-0.7-3.7,0.4c-0.8,1.1-0.4,2.4-1.1,3.4c-1.2,1.7-4.1,0.5-5.8-0.9c-1.7-1.3-4.4-2.6-5.8-0.9
		c-0.3,0.6-0.6,1.2-0.8,1.8c-0.9,2.3-3.6,3.3-5.7,4.7c-2.1,1.4-3.8,4.3-2.2,6.1c0.8,0.9,2.3,1.4,2.6,2.5c0.4,1.4-1.1,2.6-2.4,3.6
		c-2.1,1.5-2.7,6.4-0.1,7.8c1.1,0.6,2.7,0.9,2.9,2c0.2,1.2-1,1.8-1.7,2.6c-0.5,0.6-0.9,1.2-1.1,1.9c-0.2,0.7-0.3,1.4-0.1,2.2
		c0.1,0.7,0.4,1.4,0.8,2c0.4,0.6,1,1.1,1.6,1.5c0.6,0.3,1.4,0.6,1.6,1.2c0.1,0.5,0,1-0.2,1.4c-0.3,0.9-0.4,1.8-0.4,2.7
		c0,0.3,0.1,0.6,0.3,0.9c0.2,0.2,0.5,0.3,0.8,0.3c3.7,0.3,5.7-0.9,7.8,2.4c0.2,0.3,0.4,0.6,0.7,0.8c0.3,0.2,0.7,0.3,1,0.3
		c2.6,0.3,4.4-1.2,6.8-1.3c3.3-0.3,3.9,1.4,6.8,2.9c4.5,2.3,6.8,1.1,7.8-1.8c0.3-0.8,0.5-1.7,0.5-2.6c0-0.7,0.2-1.3,0.5-1.9
		c0.3-0.6,0.7-1.1,1.3-1.5h0.1c2.4,0.3,4.1-0.9,6.2-1.3l1.3-0.1c2.6,0.1,3.3,1.6,5.9,2.9c1.2,0.7,2.5,1.1,3.9,1.2
		c0.3,1.4-1.2,2.5-2.4,3.4c-2.1,1.5-2.7,6.4-0.1,7.8c1.1,0.6,2.7,0.9,2.9,2s-1,1.8-1.7,2.6c-0.5,0.6-0.8,1.2-1.1,1.9
		c-0.2,0.7-0.2,1.4-0.1,2.1c0.1,0.7,0.4,1.4,0.8,2c0.4,0.6,1,1.1,1.6,1.5c0.6,0.3,1.4,0.6,1.6,1.2c0.1,0.5,0,1-0.2,1.4
		c-0.3,0.9-0.4,1.8-0.4,2.7c0,0.1,0,0.3,0,0.4c0,0.1,0.1,0.3,0.2,0.4c0.1,0.1,0.2,0.2,0.4,0.2c0.1,0.1,0.3,0.1,0.5,0
		c3.7,0.3,5.7-0.9,7.8,2.4c0.2,0.3,0.4,0.6,0.7,0.9c0.3,0.2,0.7,0.3,1,0.3c2.6,0.3,4.4-1.2,6.8-1.3c3.3-0.3,3.9,1.4,6.8,2.9
		c4.5,2.3,6.8,1.1,7.8-1.8c0.3-0.8,0.5-1.7,0.5-2.6c0.6-5.4,5.9-4.3,10.5-4.8c0.2,0,0.3,0,0.4-0.1c0.1-0.1,0.2-0.2,0.3-0.3h0.3
		c2.6,0.3,4.4-1.2,6.8-1.3c3.3-0.3,3.9,1.4,6.8,2.9c4.5,2.3,6.8,1.1,7.8-1.8c0.3-0.8,0.5-1.7,0.5-2.6c0.5-4.2,3.8-4.5,7.5-4.6
		c0,0.8,0.3,1.6,0.7,2.3c0.4,0.7,1.1,1.3,1.8,1.7c0.6,0.3,1.4,0.6,1.6,1.2c0.1,0.5,0,1-0.2,1.4c-0.3,0.9-0.4,1.8-0.4,2.7
		c0,0.1,0,0.3,0,0.4c0,0.1,0.1,0.3,0.2,0.4c0.1,0.1,0.2,0.2,0.4,0.2c0.1,0.1,0.3,0.1,0.5,0.1c3.7,0.3,5.7-0.9,7.8,2.4
		c0.2,0.3,0.4,0.6,0.7,0.8c0.3,0.2,0.7,0.3,1,0.3c2.6,0.3,4.4-1.2,6.8-1.3c3.3-0.3,3.9,1.4,6.8,2.9c4.5,2.3,6.8,1.1,7.8-1.8
		c0.3-0.8,0.4-1.7,0.5-2.6c0.6-5.4,5.9-4.3,10.5-4.8c3.6-0.4-5.4-9.5,1.9-12c1.5-0.3,2.8-1.1,3.7-2.3c0.4-0.8,0.5-1.8,0.2-2.6
		C286.7,153.4,286.2,152.7,285.4,152.1z M236.9,157.7c0.2,0.1,0.4,0.3,0.5,0.4c0.1,0.2,0.2,0.4,0.3,0.6c0.1,0.3,0,0.7-0.2,0.9
		C237.2,159,237.1,158.3,236.9,157.7L236.9,157.7z M190.1,110.4c-1.4-0.4-2.7-1.1-3.6-2.2C187.8,108.8,189,109.5,190.1,110.4z
		 M227.1,123.3c0.2-0.5,0.5-1,0.9-1.5c0.4,0.2,0.7,0.5,0.9,0.9c0,0.1,0,0.2,0,0.4c-0.3-0.1-0.5-0.1-0.8-0.1
		C227.7,123.1,227.4,123.2,227.1,123.3z M232.1,128c2.1,0,3.6,0,5.2,2.4c0.2,0.3,0.4,0.6,0.7,0.8c0.3,0.2,0.7,0.3,1,0.3
		c1.3,0.1,2.7-0.1,3.9-0.6c-0.1,0.3-0.2,0.7-0.4,1c-0.5,1.1-1.4,2-2.5,2.7c-0.5-2.6-4.3-2.9-7.1-2.5
		C232.4,130.8,232.1,129.4,232.1,128L232.1,128z M249.1,131.1c-0.2-0.2-0.5-0.4-0.8-0.6c1.1,0.5,2.1,1.1,3,1.9
		C250.5,132,249.8,131.6,249.1,131.1L249.1,131.1z"/>
	<path class="st4" d="M148.8,199.9c-1.3-0.8-2.7-1.2-4.3-1.2c-0.9-1.1,0-2.7,0.9-3.8c0.9-1.1,2.1-2.3,1.8-3.6
		c-0.4-2.1-3.4-2.3-5.6-2c-0.7-1.3-0.6-2.8-1-4.2c-0.3-1.4-1.4-3-2.9-2.9c-1.5,0.1-2.4,1.6-3.7,1.8c-1.6,0.3-3-1.2-4.2-2.2
		c-1.2-1-3.4-1.8-4.3-0.5c-0.6,0.8-0.3,1.9-0.9,2.7c-1,1.3-3.2,0.4-4.5-0.7c-1.3-1-3.5-2-4.5-0.7c-0.3,0.4-0.5,0.9-0.6,1.4
		c-0.7,1.8-2.8,2.6-4.5,3.7c-1.6,1.1-3,3.3-1.8,4.8c0.6,0.7,1.8,1.1,2.1,2c0.4,1.1-0.9,2.1-1.9,2.8c-1.6,1.2-2.1,5-0.1,6.2
		c0.8,0.5,2.1,0.7,2.3,1.6c0.2,0.9-0.7,1.4-1.4,2c-0.4,0.4-0.7,0.9-0.9,1.5c-0.2,0.6-0.2,1.1-0.1,1.7c0.1,0.6,0.3,1.1,0.6,1.6
		c0.3,0.5,0.8,0.9,1.3,1.2c0.5,0.3,1.1,0.5,1.2,1c0.1,0.4,0,0.8-0.2,1.1c-0.2,0.7-0.3,1.4-0.3,2.1c0,0.2,0.1,0.5,0.2,0.7
		c0.2,0.1,0.4,0.2,0.6,0.2c3,0.3,4.5-0.7,6.2,1.9c0.2,0.3,0.4,0.5,0.6,0.7c0.2,0.1,0.5,0.2,0.8,0.2c2,0.3,3.4-0.9,5.3-1.1
		c2.6-0.2,3.1,1.1,5.3,2.3c3.5,1.8,5.3,0.9,6.1-1.5c0.2-0.7,0.4-1.3,0.4-2c0.5-4.2,4.7-3.4,8.3-3.8c2.8-0.3-4.3-7.5,1.5-9.4
		c1.1-0.2,2.1-0.8,2.8-1.7c0.3-0.7,0.4-1.4,0.2-2.2C149.9,200.9,149.4,200.3,148.8,199.9z"/>
</g>
<path class="st5" d="M229.5,174.4l6.8-17.7l12.2-13.6l-1.9-1.7l-11.4,10.8l-1-18l-4.3-0.2c0,0,4.7,20.8,0.5,28.4
	c0,0-17.1,32.9-25.6,39.6c-0.5,0.4-0.9,0.8-1.2,1.3c-2.1-6.2-5-12.1-8.6-17.6c3.6-7.8,11.4-25,14.3-34.2c2.2-7.2,4-14.5,5.3-21.8
	l-3.1-1.8c0,0-8.9,35.6-22.2,50.7c-3.6-3.5-7.6-6.4-12.1-8.6c-0.8-4.9-0.8-13.4,3.2-26.4l-2.4-2.3c0,0-5.9,12.5-6.1,25.9
	c-1.8-1-3.6-2.1-5.3-3.4c-11.7-8.7-19.4-23.9-19.4-23.9l-4.6-0.2c0,0,11.2,24.7,25.2,32.7c14,8,22.4,26.1,22.9,30.8
	c0.2,1.3-0.2,15.4-0.9,34.8c-15.3-9.9-52.8-34.3-54.7-36l-0.2,4.5l54.6,42.8c-1.5,45.1-3.9,108.3-4.3,118.4l22.3,1
	c1-14,6.2-95.7,1.4-140.7c0.3-1.3,0.6-2.9,0.9-4.7c3.1-16.8,20.7-41.5,24.2-45.4c3.5-3.9,13.6-16.4,13.6-16.4l-1.8-2.9L229.5,174.4z
	"/>
<path class="st6" d="M229.5,174.4l6.8-17.7l12.2-13.6l-1.9-1.7l-11.4,10.8l-1-18l-4.3-0.2c0,0,4.7,20.8,0.5,28.4
	c0,0-17.1,32.9-25.6,39.6c-0.5,0.4-0.9,0.8-1.2,1.3c-2.1-6.2-5-12.1-8.6-17.6c3.6-7.8,11.4-25,14.3-34.2c2.2-7.2,4-14.5,5.3-21.8
	l-3.1-1.8c0,0-8.9,35.6-22.2,50.7c-3.6-3.5-7.6-6.4-12.1-8.6c-0.8-4.9-0.8-13.4,3.2-26.4l-2.4-2.3c0,0-5.9,12.5-6.1,25.9
	c-1.8-1-3.6-2.1-5.3-3.4c-11.7-8.7-19.4-23.9-19.4-23.9l-4.6-0.2c0,0,11.2,24.7,25.2,32.7c14,8,22.4,26.1,22.9,30.8
	c0.2,1.3-0.2,15.4-0.9,34.8c-15.3-9.9-52.8-34.3-54.7-36l-0.2,4.5l54.6,42.8c-1.5,45.1-3.9,108.3-4.3,118.4l22.3,1
	c1-14,6.2-95.7,1.4-140.7c0.3-1.3,0.6-2.9,0.9-4.7c3.1-16.8,20.7-41.5,24.2-45.4c3.5-3.9,13.6-16.4,13.6-16.4l-1.8-2.9L229.5,174.4z
	"/>
<path class="st0" d="M463.5,370.8c0,0-3.2-10.5,3.3-12.6c6.6-2.1,10.5-7,10.2-12.5c-0.2-5.5,6.7-10.9,11.9-5.7
	c5.2,5.2,4.5-4,11.4-6.2c6.9-2.2,12.8,3.2,10.9,8.1c-1.9,4.9,5,8,13.1,3.8s17.2,3.4,15.4,9.4c-1.7,6-0.3,6.6,4.9,4.7
	c5.2-2,14.4,3.7,11.2,11C552.6,378.1,463.5,370.8,463.5,370.8z"/>
<path class="st0" d="M122.9,371.9c-5.8-3.8-0.6-10.3,5.3-11c5.8-0.8,11.7-7.5,12-11.7c0.3-4.3,10.8-17.4,27.1-9.3s11.4,1.2,23.2-1.1
	c11.8-2.3,19.3,4.3,14.1,9.2c0,0,11.9-1.9,16.7,5.3c4.9,7.2,0,11.7,0,11.7s22.3-0.4,20.3,8.6C239.5,382.6,122.9,371.9,122.9,371.9z"
	/>
<path class="st0" d="M102.5,367.4c0,0,10.6-19.9,7.9-21.8c-2.7-1.9-7.9,16.6-7.9,15.1c0-1.5,0.3-26.7-4.6-25.7c-4.9,1,0,24.3,0,24.3
	s-6.6-11.9-9.2-11c-2.6,0.9,7.6,15,7.6,15s-6.1-3.5-7.6-3.3s7.6,7.3,7.6,7.3H102.5z"/>
<path class="st0" d="M400.2,369.9c0,0-10.6-19.9-7.9-21.8c2.7-1.9,7.9,16.6,7.9,15.2c0-1.4-0.3-26.7,4.6-25.7c4.9,1,0,24.3,0,24.3
	s6.6-11.9,9.2-11c2.6,0.9-7.6,15-7.6,15s6.1-3.5,7.6-3.3c1.5,0.3-7.6,7.3-7.6,7.3H400.2z"/>
<path class="st7" d="M463.5,370.8c0,0-3.2-10.5,3.3-12.6c6.6-2.1,10.5-7,10.2-12.5c-0.2-5.5,6.7-10.9,11.9-5.7
	c5.2,5.2,4.5-4,11.4-6.2c6.9-2.2,12.8,3.2,10.9,8.1c-1.9,4.9,5,8,13.1,3.8s17.2,3.4,15.4,9.4c-1.7,6-0.3,6.6,4.9,4.7
	c5.2-2,14.4,3.7,11.2,11C552.6,378.1,463.5,370.8,463.5,370.8z"/>
<path class="st7" d="M122.9,371.9c-5.8-3.8-0.6-10.3,5.3-11c5.8-0.8,11.7-7.5,12-11.7c0.3-4.3,10.8-17.4,27.1-9.3s11.4,1.2,23.2-1.1
	c11.8-2.3,19.3,4.3,14.1,9.2c0,0,11.9-1.9,16.7,5.3c4.9,7.2,0,11.7,0,11.7s22.3-0.4,20.3,8.6C239.5,382.6,122.9,371.9,122.9,371.9z"
	/>
<path class="st7" d="M102.5,367.4c0,0,10.6-19.9,7.9-21.8c-2.7-1.9-7.9,16.6-7.9,15.1c0-1.5,0.3-26.7-4.6-25.7c-4.9,1,0,24.3,0,24.3
	s-6.6-11.9-9.2-11c-2.6,0.9,7.6,15,7.6,15s-6.1-3.5-7.6-3.3s7.6,7.3,7.6,7.3H102.5z"/>
<path class="st7" d="M400.2,369.9c0,0-10.6-19.9-7.9-21.8c2.7-1.9,7.9,16.6,7.9,15.2c0-1.4-0.3-26.7,4.6-25.7c4.9,1,0,24.3,0,24.3
	s6.6-11.9,9.2-11c2.6,0.9-7.6,15-7.6,15s6.1-3.5,7.6-3.3c1.5,0.3-7.6,7.3-7.6,7.3H400.2z"/>
<path class="st0" d="M334.5,369.2c0,0,12-10.2,8.4-11.9s-8,7.7-8.4,6.3c-0.4-1.4,2.4-14.4-4.3-13.5c-6.7,0.9,0,13.5,0,13.5
	s-5-5.2-6.7-4.3c-1.7,0.8,5.3,10,5.3,10H334.5z"/>
<path class="st7" d="M334.5,369.2c0,0,12-10.2,8.4-11.9s-8,7.7-8.4,6.3c-0.4-1.4,2.4-14.4-4.3-13.5c-6.7,0.9,0,13.5,0,13.5
	s-5-5.2-6.7-4.3c-1.7,0.8,5.3,10,5.3,10H334.5z"/>
<path class="st8" d="M71.6,365.9H565c0.7,0,1.3,0.3,1.8,0.7c0.5,0.5,0.7,1.1,0.7,1.7v21.9H69.1v-21.9c0-0.3,0.1-0.6,0.2-0.9
	c0.1-0.3,0.3-0.6,0.5-0.8c0.2-0.2,0.5-0.4,0.8-0.5C71,365.9,71.3,365.9,71.6,365.9z"/>
<path class="st9" d="M71.6,365.9H565c0.7,0,1.3,0.3,1.8,0.7c0.5,0.5,0.7,1.1,0.7,1.7v21.9H69.1v-21.9c0-0.3,0.1-0.6,0.2-0.9
	c0.1-0.3,0.3-0.6,0.5-0.8c0.2-0.2,0.5-0.4,0.8-0.5C71,365.9,71.3,365.9,71.6,365.9z"/>
<path class="st10" d="M565,370.7h-32.6v16.5H565V370.7z"/>
<path class="st10" d="M530.7,369.2H498v16.5h32.6V369.2z"/>
<path class="st10" d="M496.6,375.2h-21.2v10.5h21.2V375.2z"/>
<path class="st10" d="M98.4,376.5H77.2V387h21.2V376.5z"/>
<path class="st10" d="M473.7,369.9h-22.3v14.4h22.3V369.9z"/>
<path class="st10" d="M449.7,368h-15.2v14.4h15.2V368z"/>
<path class="st10" d="M116.1,370.7h-15.2v14.4h15.2V370.7z"/>
<path class="st10" d="M385.7,370.7h-15.2v14.4h15.2V370.7z"/>
<path class="st10" d="M401.6,368h-15.2v9.9h15.2V368z"/>
<path class="st10" d="M433,371.8h-25v14.4h25V371.8z"/>
<path class="st10" d="M368.8,369.9h-25v14.4h25V369.9z"/>
<path class="st10" d="M495.2,369.2H479v4.6h16.1V369.2z"/>
<path class="st10" d="M93.3,369.5H77.2v4.6h16.1V369.5z"/>
<path class="st10" d="M405,380h-16.1v4.6H405V380z"/>
<path class="st10" d="M341.5,370.7h-32.6v16.5h32.6V370.7z"/>
<path class="st10" d="M307.1,369.2h-32.6v16.5h32.6V369.2z"/>
<path class="st10" d="M273.1,375.2h-21.2v10.5h21.2V375.2z"/>
<path class="st10" d="M250.2,369.9h-22.3v14.4h22.3V369.9z"/>
<path class="st10" d="M226.2,368H211v14.4h15.2V368z"/>
<path class="st10" d="M162.2,370.7H147v14.4h15.2V370.7z"/>
<path class="st10" d="M178.1,368h-15.2v9.9h15.2V368z"/>
<path class="st10" d="M209.4,371.8h-25v14.4h25V371.8z"/>
<path class="st10" d="M145.2,369.9h-25v14.4h25V369.9z"/>
<path class="st10" d="M271.6,369.2h-16.1v4.6h16.1V369.2z"/>
<path class="st10" d="M181.5,380h-16.1v4.6h16.1V380z"/>
<path class="st10" d="M173.4,343.6h-35c-1.2,0-2.2,1-2.2,2.1v14.4c0,1.2,1,2.1,2.2,2.1h35c1.2,0,2.2-1,2.2-2.1v-14.4
	C175.6,344.5,174.6,343.6,173.4,343.6z"/>
<path class="st0" d="M476.1,55.3c0,0,0.6-6.1,2-7c1.5-0.9,10.6-3.3,10.6-3.3s-3.6,9.4-5.8,10.4C480.7,56.6,476.1,55.3,476.1,55.3z"
	/>
<path class="st9" d="M488.7,45c-0.1,0.3-3.6,9.4-5.8,10.4c-1.4,0.5-3,0.6-4.5,0.3c-0.8-0.1-1.6-0.3-2.4-0.5c0,0,0.6-6.1,2-7
	C479.6,47.4,487.9,45.2,488.7,45L488.7,45z"/>
<path class="st11" d="M488.7,45c-0.1,0.3-3.6,9.4-5.8,10.4c-1.4,0.5-3,0.6-4.5,0.3c-2.1-1.3,2.3-2.8,3-3.3c0.7-0.5,0.2-0.9,0-1.3
	s0.6-1.2,1.5-1.5c0.9-0.3,1.2-1,1-2C483.6,46.7,488.1,45.3,488.7,45L488.7,45z"/>
<path class="st0" d="M471.5,51.7c2.1,0,6.7,2.2,8.3,2.3c1.5,0.1,9.2-5,10.9-5.8c1.6-0.8,16.1-2.7,16.1-2.7s-9.6,9.5-16.1,9.7
	c0,0,4.8,1.3,6.2,0.9c4.5-0.9,9-1.3,13.6-1.3l-8.9,2.8l7.8,0.9c-3.6,0.6-7.3,0.8-11,0.4c-2.8,1-5.7,1.8-8.6,2.3
	c-2,0.5-4.1,0.5-6.2,0.1c-2-0.4-4-1.2-5.6-2.5c-2.8-2.2-12.1-4.7-12.1-4.7l3.2-1.1c0.2-0.4,0.6-0.8,1-1.1
	C470.5,51.8,471,51.7,471.5,51.7z"/>
<path class="st7" d="M501.5,57.6l7.8,0.9c-3.6,0.6-7.3,0.8-11,0.4c-2.3,0.8-4.6,1.5-6.9,1.9l-1.7,0.4c-2,0.5-4.1,0.5-6.2,0.1
	c-2-0.4-4-1.2-5.6-2.5c-1.7-1.1-3.6-2-5.6-2.6l-1-0.4l-0.8-0.3l-1.7-0.5c-1.7-0.5-3-0.9-3-0.9l3.2-1.1c0.2-0.5,0.6-0.8,1-1.1
	c0.4-0.3,1-0.4,1.5-0.4c2,0.3,4,0.8,5.8,1.6c0.8,0.3,1.6,0.5,2.5,0.7c1.5,0.1,9.2-5,10.9-5.8c2.7-0.7,5.5-1.3,8.3-1.6
	c4-0.6,7.8-1.1,7.8-1.1s-6.6,6.6-12.6,8.9c-1,0.4-2,0.7-3.1,0.8h-0.4h0.1c0.6,0.2,4.9,1.2,6.2,0.9c1-0.2,2.1-0.4,3.1-0.6
	c3.5-0.5,6.9-0.7,10.4-0.7L501.5,57.6z"/>
<path class="st11" d="M477.3,53.3c-1-0.1-1.9,0.1-2.8,0.6c-0.6,0.6-1.2,2-2.2,2.5l-1-0.4l-0.8-0.3l-1.7-0.5c-0.1-0.7,0-1.3,0.1-2
	c0.2-0.5,0.6-0.8,1-1.1c0.4-0.3,1-0.4,1.5-0.4C473.5,51.9,475.4,52.5,477.3,53.3z"/>
<path class="st11" d="M506.8,45.4c0,0-6.6,6.6-12.6,8.9c-1,0.3-2,0.6-3.1,0.8h-0.3c-4.9,0.7-5.4,0-5.4,0s1.6-0.5,1.8-0.5
	c0.2,0-0.7-0.5,0.4-0.9c1-0.4,0.9-0.9,0.9-0.9c1-0.3,2.1-0.7,3-1.2c0.1-0.3-0.4-0.8,0.9-1.1s0-0.9,2.1-1.6c2.1-0.7,1.5-1.1,1.5-1.1
	c1.1-0.2,2.1-0.6,3-1.3C502.9,45.9,506.8,45.4,506.8,45.4z"/>
<path class="st11" d="M501.5,57.6l7.8,0.9c-3.6,0.6-7.3,0.8-11,0.4c-2.3,0.8-4.6,1.5-6.9,1.9c-0.9-0.5,1.6-1.2,2.8-1.8
	c1.4-0.7,1.2-0.6,0.7-0.9c-0.6-0.4,0-0.5,1.7-0.8c1.7-0.4,1.2-0.7,2.3-1.4c0.4-0.2,0.8-0.4,1.2-0.5c3.5-0.5,6.9-0.7,10.4-0.7
	L501.5,57.6z"/>
<path class="st0" d="M469,53.2l0.9,0.6l-0.5,1.5l-3.5-1L469,53.2z"/>
<path class="st0" d="M369,117.4c1.4-0.8,7,5,9.7,5.8c-1.9,0.6-4,0.7-5.9,0.1C369.9,122.3,367.6,118.3,369,117.4z"/>
<path class="st12" d="M378.7,123.2c-1.9,0.6-4,0.7-5.9,0.1c-2.9-1-5.3-5-3.8-5.8c0.3-0.2,0.9,0,1.6,0.4
	C372.9,119.1,376.7,122.6,378.7,123.2z"/>
<path class="st11" d="M378.7,123.2c0,0-2.4,0.3-2.7-0.1c-0.2-0.2-0.4-0.3-0.6-0.4c-0.2-0.1-0.5-0.1-0.7-0.1c-0.7,0-0.9-0.3-0.8-1
	c0.1-0.6-0.8-0.3-1.4-0.5s0.1-0.4,0.1-0.9c0-0.5-1.1-0.5-1.2-0.9c-0.1-0.4,0.4-0.3,0.1-0.7c-0.2-0.4-1.1-0.5-0.8-0.9
	C372.9,119.1,376.7,122.6,378.7,123.2z"/>
<path class="st0" d="M364.6,116.3c1.4-0.3,4.8,0.6,5.9,0.5s7.5-0.5,7.5-0.5c1.4,0.2,2.9,0.1,4.3-0.1c2.9-1.1,5.9-2,9-2.5l-5.6,3
	l5.4-0.3c-2.4,0.9-4.8,1.4-7.4,1.6c-1.8,1-3.6,1.9-5.5,2.6c-1.3,0.6-2.7,0.9-4.1,0.9s-2.8-0.4-4.1-1c-2.2-1.1-8.8-1.7-8.8-1.7l2-1.1
	c0.1-0.3,0.3-0.6,0.5-0.9C363.9,116.5,364.2,116.4,364.6,116.3z"/>
<path class="st7" d="M385.6,116.6l5.4-0.3c-2.4,0.9-4.8,1.4-7.4,1.6l-0.3,0.2c-1.3,0.7-2.7,1.4-4.2,2c-0.3,0.2-0.7,0.3-1.1,0.5
	c-1.3,0.6-2.8,0.8-4.2,0.8c-1.4,0-2.8-0.3-4-1c-1.3-0.5-2.7-0.9-4.1-1.1l-0.8-0.1l-0.6-0.1l-1.2-0.2l-2.2-0.2l2-1.1
	c0.1-0.3,0.3-0.6,0.5-0.9c0.3-0.2,0.6-0.4,0.9-0.5c1.4-0.1,2.8,0.1,4.1,0.3c0.6,0.1,1.2,0.2,1.8,0.2c1.1-0.1,7.6-0.5,7.5-0.5h0.1
	c1.4,0.2,2.9,0.1,4.3-0.1c0.7-0.3,1.4-0.6,2-0.8c2.3-0.7,4.6-1.3,6.9-1.7L385.6,116.6z"/>
<path class="st11" d="M368.7,116.7c-0.7,0.1-1.3,0.3-1.8,0.7c-0.3,0.5-0.5,1.5-1.1,1.9l-0.8-0.1l-0.6-0.1l-1.2-0.2
	c-0.1-0.4-0.2-0.9-0.2-1.3c0.1-0.3,0.3-0.6,0.5-0.9c0.3-0.2,0.6-0.4,0.9-0.5C366,116.2,367.4,116.4,368.7,116.7z"/>
<path class="st11" d="M385.6,116.6l5.4-0.3c-2.4,0.9-4.8,1.4-7.4,1.6c-1.4,0.8-2.9,1.5-4.4,2.1c-0.7-0.2,0.9-1,1.6-1.5
	c0.9-0.7,0.7-0.5,0.3-0.7c-0.4-0.2,0-0.3,1-0.8s0.7-0.6,1.3-1.2c0.2-0.2,0.5-0.4,0.8-0.5c2.3-0.7,4.6-1.3,6.9-1.7L385.6,116.6z"/>
<path class="st0" d="M363.1,117.6l0.7,0.3l-0.2,1.1l-2.5-0.3L363.1,117.6z"/>
<path class="st13" d="M383.4,118.1c-1.3,0.7-2.7,1.4-4.2,2c-0.3,0.2-0.7,0.3-1.1,0.5c-1.3,0.6-2.8,0.8-4.2,0.8
	c-0.8-0.8-1.4-1.7-1.9-2.6c0,0,0.4-1.1,2.4-1.8C375.7,116.5,380.3,117.4,383.4,118.1z"/>
<path class="st0" d="M372,116.9c2.5-1.3,16.9,4.3,22.8,4.5c-4,1.2-8.1,1.7-12.3,1.4C375.9,122.3,369.4,118.2,372,116.9z"/>
<path class="st7" d="M394.8,121.4c-4,1.2-8.1,1.7-12.3,1.4c-6.6-0.5-13.2-4.6-10.5-5.9c1.2-0.3,2.4-0.3,3.5,0.1
	C380.9,117.9,390.3,121.2,394.8,121.4z"/>
<path class="st11" d="M394.8,121.4c0,0-5,0.8-5.8,0.5c-1-0.4-2-0.5-3-0.3c-1.4,0.1-2.1-0.2-2.1-1c0-0.8-1.9-0.2-3.2-0.3
	c-1.3-0.1,0-0.5-0.2-1s-2.6-0.3-2.9-0.8c-0.3-0.4,0.7-0.4,0-0.8c-0.7-0.4-2.5-0.3-2-0.8C380.9,117.9,390.3,121.2,394.8,121.4z"/>
<path class="st0" d="M181.1,265.5c0,2.4,25.6,6.5,26,6.5s5.4-0.8,5.4-0.8l9.1,0.8c0.3-0.3,0.5-0.6,0.7-0.9c0.4-0.7,0.6-1.5,0.6-2.3
	c0-0.2,0-0.5,0-0.8c0-1.9-0.3-3.8-0.8-5.7c-1.9,0.2-3.7,0-5.5-0.6c-1.8-0.6-3.4-1.4-4.9-2.6c-1.3-3.1-3.1-6.6-5.1-8
	c0,0-18,1.2-21.7,3.3C181.1,256.4,181.1,265.5,181.1,265.5z"/>
<g class="st14">
	<path d="M181.1,265.5c0,2.4,25.6,6.5,26,6.5s5.4-0.8,5.4-0.8l9.1,0.8c0.3-0.3,0.5-0.6,0.7-0.9c0.4-0.7,0.6-1.5,0.6-2.3
		c0-0.2,0-0.5,0-0.8c0-1.9-0.3-3.8-0.8-5.7c-1.9,0.2-3.7,0-5.5-0.6c-1.8-0.6-3.4-1.4-4.9-2.6c-1.3-3.1-3.1-6.6-5.1-8
		c0,0-18,1.2-21.7,3.3C181.1,256.4,181.1,265.5,181.1,265.5z"/>
</g>
<path class="st8" d="M190.7,265.9c0,0,14.4-29.5,70.5-73.1c0,0,120.6-15.8,199.7,0.2c0,0,31.8,42.1,35.3,63.1
	C499.6,277.2,190.7,265.9,190.7,265.9z"/>
<g class="st15">
	<path class="st4" d="M416.6,191.7c0.9,7,2.9,25.4,3.4,60.9c-44.7,4.4-79,9.7-79,9.7c10.4-38.2,38.4-67.6,38.4-67.6
		C391.6,192.9,404.1,191.9,416.6,191.7z"/>
	<path class="st4" d="M491.2,247.5c-7,0.3-14.1,0.6-21.1,1.1l-1.6,0.1l-3.1,0.2l-1.5,0.1c-13.1,0.9-26.1,1.9-38.3,3.1
		c-0.5-14.7-1.6-42-4.2-60.3c12.7-0.1,25.4,0.9,38,2.9l0.4,0.1c0,0,0,0,0,0.1c0.4,0.4,0.7,0.8,1,1.2l0.4,0.5
		C479.3,218.8,491.2,247.5,491.2,247.5z"/>
	<path class="st4" d="M198,257.1c0,0,45.4-8.4,132.3,0c0,0,17.5-37.9,40.6-62.5c0,0-56.2-8.2-110.1,0C237.4,213,216.3,234,198,257.1
		z"/>
</g>
<path class="st11" d="M354.6,191c0,0-48.6-2.5-75.5-0.2c-26.8,2.3-31.5,12.9-31.5,12.9c7.2-2.7,14.5-4.9,22.1-6.4
	c0,2.3,0.1,5.7,1.1,7c0.7,1,12-0.3,14.3-1.6c1.6-0.8,3.5-5,4.7-7.6C313.6,193.4,354.6,191,354.6,191z M284,201.1
	c-0.9,0.4-9.4,1.9-11.6,1.5c-0.6-0.1-0.8-3.1-0.7-5.6c1.3-0.2,2.7-0.4,4-0.6c2.5-0.3,6.5-0.6,11.6-1
	C286.1,198,284.8,200.8,284,201.1z"/>
<path class="st11" d="M476,236.9c-1.6-2.9-4.3-5.1-7.6-6.2c0,0,2.2-13.7,0-15.9c-2.2-2.1-21.5-1.5-25.9,0c-3.1,1.1-5.4,8.5-6.4,12.6
	h-61.7c0.5-4.2,1.1-11.1-0.4-12.6c-2.2-2.1-21.6-1.5-25.9,0c-4.3,1.5-7,15.3-7,15.3c-3.5,0.6-6.8,2.1-9.5,4.2c-5,3.6-9.4,39-9.4,39
	h152.4C474.6,273.3,478.3,241.6,476,236.9z"/>
<path class="st8" d="M271.7,271.1c0,0,4.4-35.3,9.4-39c2.8-2.1,6.1-3.6,9.6-4.2c0,0,2.7-13.7,7-15.3c4.3-1.5,23.7-2.1,25.9,0
	s0,15.9,0,15.9c3.3,1.1,6,3.3,7.6,6.2c2.4,4.7-1.4,36.4-1.4,36.4H271.7z"/>
<path class="st12" d="M271.7,271.1c0,0,4.4-35.3,9.4-39c2.8-2.1,6.1-3.6,9.6-4.2c0,0,2.7-13.7,7-15.3c4.3-1.5,23.7-2.1,25.9,0
	s0,15.9,0,15.9c3.3,1.1,6,3.3,7.6,6.2c2.4,4.7-1.4,36.4-1.4,36.4H271.7z"/>
<path class="st16" d="M286.4,248.1c-0.9-0.4-1.9-0.9-2.8-1.5c-0.9-0.5-1.7-1.1-2.5-1.7c-1.7-1.2-3.3-2.6-4.7-4.1
	c-1.6-1.7-2.8-3.7-3.6-5.9c-0.2-0.6-0.3-1.2-0.5-1.8l-0.2-1.6c-0.1-1-0.1-2-0.1-2.9c0-3.6,0.3-7.3,0.8-10.9
	c0.4-3.6,0.9-7.1,1.7-10.7c0.1-0.5,0.4-0.9,0.8-1.3c0.4-0.3,0.9-0.5,1.5-0.4c0.5,0,1,0.3,1.4,0.6c0.4,0.4,0.6,0.9,0.6,1.4L279,218
	c0.1,3.5,0.2,7,0.5,10.3c0,1.4,0.3,2.8,0.8,4.1c0.6,1.1,1.4,2.2,2.4,3c1.1,1.1,2.3,2,3.6,2.9c0.7,0.4,1.3,0.9,2,1.3s1.5,0.9,2,1.2
	l0.2,0.1c1,0.5,1.7,1.4,2.1,2.4c0.3,1,0.2,2.2-0.3,3.1c-0.5,1-1.4,1.7-2.5,2C288.6,248.8,287.5,248.7,286.4,248.1L286.4,248.1z"/>
<path class="st16" d="M281.1,201.6l0.7,1.9c0.1,0.4,0.2,0.7,0.1,1.1c-0.1,0.4-0.2,0.7-0.4,1l-2.2,2.9c-0.4,0.6-1,1-1.6,1.3
	c-0.7,0.3-1.4,0.5-2.1,0.5h-0.9c-1.4-3.1-0.4-7.5-0.4-7.5l0.1-1.3c0-0.3,0.1-0.5,0.2-0.7c0.1-0.2,0.3-0.4,0.5-0.6
	c0.2-0.2,0.4-0.3,0.7-0.4c0.3-0.1,0.5-0.1,0.8-0.1l2.6,0.2c0.5,0.1,0.9,0.2,1.2,0.5C280.7,200.8,281,201.2,281.1,201.6z"/>
<path class="st4" d="M292,239.1c0,0-9.9-5.4-11-6.9c-1.1-1.6-1.6-13.8-1.6-13.8l-7.7,3.4c0,0-1.3,10.8,0,15
	c1.3,4.2,11.2,14.3,11.2,14.3L292,239.1z"/>
<path class="st8" d="M293.4,210.7c-5.9,4.7-5.2,18,1.4,26.8c0,0,14.2,1.2,22.1-2.3c7.9-3.5-0.8-25.1-9.2-26.8
	C302.9,207.4,297.7,208.2,293.4,210.7z"/>
<path class="st8" d="M293.7,224.6c-2.2-3.6-4.3-13.3,4.7-16.3c11.2-3.7,16.3,3.2,17.3,10c1,6.9-3,12-10.5,11.5
	S295.2,227.1,293.7,224.6z"/>
<path class="st0" d="M281.6,252c-1.1,5,0.8,16.8,1.1,25.8l26.6,3c0.2-4.5,1-9,2.3-13.3c1-3.8,2.4-8.4,4.4-14
	c0.3-0.8,0.6-1.7,0.9-2.6c0.3-0.9,0.5-1.8,0.4-2.8c-0.1-0.9-0.4-1.9-0.9-2.7c-0.5-0.8-1.2-1.5-2-2.1c-0.8-0.5-1.7-0.9-2.7-1
	c-1.1-0.2-2.3-0.3-3.5-0.4c-4.7-0.5-7.4-1.4-11.6-1.3c-1.4,0-4.2-1.2-5.6-1C285.9,240,282.6,247.3,281.6,252z"/>
<path class="st16" d="M308,227.9c-1.3,3.9-3.1,11.1-0.6,13.9c0,0-3.9-0.8-12.5,3.8c-2.2-3.4-0.4-4.4-0.4-4.4
	c4.8-0.8,5.1-4.1,4.7-7.2L308,227.9z"/>
<path class="st11" d="M304.5,230.4l-5.2,3.6c0.1,0.7,0.1,1.5,0.1,2.2c1.8-0.2,4.5-1.9,4.9-3.6C304.5,231.9,304.6,231.1,304.5,230.4z
	"/>
<path class="st16" d="M309.8,218.8c0.1,6.6,0.3,9.3-2.9,12.9c-4.8,5.4-13.1,4.1-15.2-2.3c-1.9-5.7-1.7-15.5,4.7-18.6
	c1.4-0.7,3-1,4.6-0.9c1.6,0.1,3.1,0.5,4.5,1.3c1.3,0.8,2.5,1.9,3.2,3.2C309.4,215.7,309.8,217.2,309.8,218.8z"/>
<path class="st8" d="M304,212.6c-1.9,2.3,2.4,9.4,5.8,10.7C316.4,221.2,309.7,205.9,304,212.6z"/>
<path class="st8" d="M296,209.6c-2.5,1.1-4.9,5.6-5.2,7.3c3.7,0.3,13.3-3.9,13.3-3.9s6.7,1.2,3.1-1.7
	C303.6,208.3,296,209.6,296,209.6z"/>
<path class="st8" d="M298.5,221.4c0,0.5-0.2,1-0.6,1s-0.7-0.4-0.7-0.9s0.2-1,0.6-1C298.2,220.5,298.5,220.9,298.5,221.4z"/>
<path class="st8" d="M292.3,221.9c0,0.5-0.2,1-0.6,1c-0.4,0-0.7-0.4-0.7-0.9c0-0.5,0.2-1,0.6-1C291.9,221,292.2,221.4,292.3,221.9z"
	/>
<path class="st8" d="M291.7,221l-1.3-0.3C290.4,220.7,291.1,221.7,291.7,221z"/>
<path class="st17" d="M294.9,222.5c-0.4,1.2-1,2.4-1.7,3.5c0.3,0.2,0.6,0.3,1,0.3c0.3,0,0.7,0,1-0.1L294.9,222.5z"/>
<path class="st8" d="M298.4,228.2c-0.3,0.1-0.5,0.1-0.8,0.1c0,0,0,0-0.1,0c0,0,0,0-0.1,0c0,0,0,0,0,0c0,0,0,0,0-0.1c0,0,0,0,0-0.1
	c0,0,0,0,0-0.1c0,0,0,0,0,0c0,0,0,0,0.1,0c0.7,0,1.4-0.2,2-0.5c0.6-0.3,1.1-0.8,1.5-1.3c0,0,0.1-0.1,0.1-0.1c0,0,0.1,0,0.1,0
	c0,0,0.1,0.1,0.1,0.1c0,0,0,0.1,0,0.1c-0.3,0.5-0.7,0.9-1.2,1.2C299.5,227.8,299,228,298.4,228.2z"/>
<path class="st16" d="M312.1,224.6c-0.4,1.2-1.2,2.2-2.4,2.9c-1.5,0.8-2.7-0.4-2.6-2c0.1-1.6,1-3.6,2.7-3.7c0.4,0,0.7,0,1.1,0.2
	c0.3,0.1,0.6,0.4,0.9,0.7c0.2,0.3,0.4,0.6,0.4,1C312.3,223.9,312.2,224.3,312.1,224.6z"/>
<path class="st8" d="M301.6,219.9c-0.1,0-0.1,0-0.2,0c-0.1,0-0.1-0.1-0.2-0.1c-0.3-0.4-0.7-0.7-1.2-1c-0.5-0.2-1-0.4-1.5-0.4
	c-0.1,0-0.2,0-0.2-0.1c-0.1-0.1-0.1-0.1-0.1-0.2c0-0.1,0-0.2,0.1-0.2c0.1-0.1,0.1-0.1,0.2-0.1c0.6,0,1.2,0.2,1.8,0.5
	c0.6,0.3,1,0.7,1.4,1.2c0,0,0,0.1,0,0.1c0,0,0,0.1,0,0.1c0,0,0,0.1-0.1,0.1S301.6,219.8,301.6,219.9L301.6,219.9z"/>
<path class="st8" d="M290.8,219.1c-0.1,0-0.1,0-0.2,0c-0.1,0-0.1,0-0.1-0.1c-0.1-0.1-0.1-0.1-0.1-0.2c0-0.1,0-0.2,0.1-0.2
	c0.4-0.4,0.8-0.6,1.3-0.8c0.5-0.2,1-0.2,1.5-0.1c0,0,0.1,0,0.1,0c0,0,0.1,0.1,0.1,0.1c0,0,0,0.1,0.1,0.1s0,0.1,0,0.1
	c0,0,0,0.1-0.1,0.1c0,0-0.1,0.1-0.1,0.1c0,0-0.1,0-0.1,0c0,0-0.1,0-0.1,0c-0.4-0.1-0.8,0-1.2,0.1c-0.4,0.1-0.7,0.3-1,0.6
	C290.9,219.1,290.9,219.1,290.8,219.1z"/>
<path class="st8" d="M298,220.5l-1.4-0.3C296.6,220.3,297.4,221.2,298,220.5z"/>
<path class="st11" d="M301.4,256.9c1.7,4.8,6.1,8.5,10.2,10.6c1-3.8,2.4-8.4,4.4-14c-2.6-3.5-6.3-6-11-5.4
	C305,248.1,299.6,251.9,301.4,256.9z"/>
<path class="st4" d="M310.9,278.8c-0.3,3.2,4.1,13.2,4.1,13.2h-3.5c0,0-2.2-6.2-4.3-13.7c-0.9-3.2-1.9-6.5-2.6-9.8
	c-0.4-1.5-0.7-3-1-4.3c-0.3-1.4-0.5-3-0.7-4.3c-0.4-3.2-0.1-6.5,0.9-9.6c0.9-3.1,2.4-5.9,4.4-8.4h-0.7c6.6-0.1,10.2,2.1,10.7,6.1
	c-0.1,2.7-0.6,5.5-1.4,8.1c-1.9,7.9-5.2,18.9-5.8,22.1C311,278.4,310.9,278.6,310.9,278.8z"/>
<path class="st4" d="M293.2,239.6c0,0-8,12.5-9.9,17c-1.9,4.5-0.8,17.5-0.8,17.5s-3.6-15.6-1.2-23.4
	C283.7,243,287.7,236.8,293.2,239.6z"/>
<path class="st11" d="M316.8,256.1c-1.9,7.9-5.2,18.9-5.8,22.1c-1.3,0.1-2.7,0.1-3.9,0.1c-0.9-3.2-1.9-6.5-2.6-9.8
	c-0.4-1.5-0.7-3-1-4.3c1.6-0.6,3.9-1.5,4.8-1.9c1.4-0.7,0.9-13.5,0.9-13.5C312.4,250.6,315,253.1,316.8,256.1z"/>
<path class="st16" d="M284.1,273.3l1.9,0.9c0.4,0.2,0.7,0.2,1.1,0.2c0.4,0,0.8-0.1,1.1-0.3l3.3-1.7c0.6-0.3,1.2-0.8,1.6-1.4
	c0.4-0.6,0.7-1.3,0.7-2l0.1-0.9c-3.1-1.7-7.6-1.3-7.6-1.3H285c-0.3,0-0.5,0-0.8,0.1c-0.3,0.1-0.5,0.2-0.7,0.4
	c-0.2,0.2-0.4,0.4-0.5,0.6c-0.1,0.2-0.2,0.5-0.2,0.8l-0.1,2.5c0,0.4,0.1,0.9,0.4,1.2C283.4,272.9,283.7,273.1,284.1,273.3z"/>
<path class="st16" d="M318.1,247.8c0.9,3.6,1.4,7.2,1.6,10.9c0.1,2,0.1,3.9-0.2,5.9c-0.2,1.2-0.5,2.4-1,3.5
	c-0.4,0.8-0.8,1.5-1.4,2.1c-0.4,0.4-0.8,0.8-1.2,1.1c-0.2,0.2-0.5,0.3-0.8,0.4l-0.4,0.2c-2.1,0.7-4.2,1.1-6.4,1.1
	c-1.9,0.1-3.8,0-5.8-0.1c-3.7-0.3-7.4-0.9-11-1.8c-0.5-0.1-0.9-0.4-1.2-0.8c-0.3-0.4-0.4-0.9-0.4-1.4c0.1-0.5,0.3-1,0.7-1.3
	c0.4-0.3,0.9-0.5,1.4-0.5h0.1c1.7,0,3.5,0,5.3-0.1c1.7-0.1,3.5-0.1,5.2-0.2c1.7-0.1,3.4-0.3,5-0.5c1.4-0.2,2.8-0.5,4.1-1.1l0.2-0.1
	l-0.2,0.1c-0.1,0.1-0.2,0.1-0.3,0.2c-0.1,0.1-0.1,0.1,0-0.1c0.1-0.5,0.2-1,0.2-1.5c0.1-1.5,0-3-0.1-4.5c-0.2-1.6-0.4-3.2-0.7-4.8
	c-0.3-1.6-0.6-3.3-0.9-4.8v-0.1c-0.2-1.1,0-2.2,0.6-3.1c0.6-0.9,1.6-1.5,2.7-1.7c1.1-0.2,2.2,0,3.2,0.6c0.9,0.6,1.6,1.5,1.9,2.5
	L318.1,247.8z"/>
<path class="st4" d="M313,243.8c3.5-1.1,6.2,2.7,7.4,9.3c1.1,6.6,1.3,17-2.5,18.9c-3.8,1.9-10.8,1.6-10.8,1.6l-4-7.5
	c0,0,7.2-1.2,7.8-2.2c0.7-1-0.8-10.1-1.4-12.9C308.9,248.2,309.2,245,313,243.8z"/>
<path class="st8" d="M351.7,271.1c0,0,4.4-35.3,9.4-39c2.8-2.1,6.1-3.6,9.6-4.2c0,0,2.7-13.7,7-15.3s23.7-2.1,25.9,0
	c2.2,2.1,0,15.9,0,15.9c3.3,1.1,6,3.3,7.6,6.2c2.4,4.7-1.4,36.4-1.4,36.4H351.7z"/>
<path class="st12" d="M351.7,271.1c0,0,4.4-35.3,9.4-39c2.8-2.1,6.1-3.6,9.6-4.2c0,0,2.7-13.7,7-15.3s23.7-2.1,25.9,0
	c2.2,2.1,0,15.9,0,15.9c3.3,1.1,6,3.3,7.6,6.2c2.4,4.7-1.4,36.4-1.4,36.4H351.7z"/>
<path class="st18" d="M368.4,242.1c-1.6,3.9-3.5,7.6-5.8,11.2c-2.7,4-5.2,7.5-9.9,10.2c-8,3.9-19.1,0.8-27-1.9l1.2-5
	c5.7,0.3,11.6,0.7,17.1,0c3.7-0.6,4.4-1.5,6.6-4.2c3.1-4.5,5.7-9.2,7.8-14.1L368.4,242.1L368.4,242.1z"/>
<path class="st8" d="M363.6,234c-3.1,0.7-6.2,4.5-15.4,20c0,0-1.4,1.9-7.6,2.5l-0.5,9.2c0,0,8.6,0.5,10.7-0.6s16.2-18.8,16.2-18.8
	L363.6,234z"/>
<path class="st10" d="M340.7,256.5l-0.5,9.2c0,0,6.9,0.4,9.9-0.3c0.3-0.1,0.6-0.2,0.9-0.3c1.2-0.6,6.4-6.8,10.6-11.9
	c3-3.7,5.5-6.8,5.5-6.8l-3.5-12.4c-3,0.7-6.2,4.5-15.4,20C348.3,254.1,346.9,255.9,340.7,256.5z"/>
<path class="st11" d="M350.1,265.5c0.3-0.1,0.6-0.2,0.9-0.3c1.2-0.6,6.4-6.8,10.6-11.9c-0.6-3.2-1.4-6.4-2.3-9.5
	C359.3,243.8,351,256.3,350.1,265.5z"/>
<path class="st18" d="M329,257.3l-6.4-3l-0.1,8.7c0,0,6.1,1.4,7.2-1.7L329,257.3z"/>
<path class="st18" d="M316.8,255.5l0.2,7.2l5.4,0.3l0.1-8.7L316.8,255.5z"/>
<path class="st8" d="M340.7,256.2l-3.5,0.6l0.3,9l3.4,0.9L340.7,256.2z"/>
<path class="st8" d="M394.2,287.7l-38.5-3.9c-0.5-0.1-0.9-0.3-1.2-0.6c-0.3-0.3-0.5-0.8-0.5-1.2c-0.8-36.4,9.7-47.9,9.7-47.9
	c3.6-0.6,7.2-0.9,10.8-1c5.3,0.1,10.5,0.6,15.7,1.3c3.6,0.4,7.1,1.1,10.6,2.1c1.8,1,2.8,9.2-1.8,33.9c-1.2,6.5-1.9,12.1-2.2,15.4
	c0,0.3-0.1,0.6-0.2,0.8c-0.1,0.2-0.3,0.5-0.5,0.6c-0.2,0.2-0.5,0.3-0.8,0.4C394.8,287.7,394.5,287.8,394.2,287.7z"/>
<path class="st8" d="M367.6,247.3l-7.4-0.8l-1.5,8.5l3.7,2.9l4.2-1.5L367.6,247.3z"/>
<path class="st10" d="M354,281.9c0,0.4,0.2,0.9,0.5,1.2c0.3,0.3,0.7,0.5,1.2,0.6l38.5,4c0.3,0,0.6,0,0.9-0.1
	c0.3-0.1,0.5-0.2,0.8-0.4c0.2-0.2,0.4-0.4,0.5-0.6c0.1-0.2,0.2-0.5,0.2-0.8c0.3-3.3,1-8.9,2.2-15.4c0.7-3.6,1.2-6.8,1.7-9.7
	c0.9-5.3,1.4-10.6,1.7-15.9c0.1-5.5-0.6-7.8-1.5-8.3c-3.5-0.9-7-1.7-10.6-2.1c-5.2-0.7-10.5-1.1-15.7-1.3c-3.6,0.1-7.2,0.4-10.8,1
	C363.6,234.1,353.2,245.6,354,281.9z"/>
<path class="st18" d="M389.9,233.9l-12.9,2.8l-0.1-3.5c0.7-0.7,1.2-1.7,1.4-2.7c0.2-1,0.1-2-0.3-3l9.3-8.4
	C386.5,223.9,386.7,230.5,389.9,233.9z"/>
<path class="st4" d="M381.3,239l-2.6,0.7l-2.3,1.1c0,0-4.6,15.4-5.2,28.7l-2.6,1.6l-2.3-2.2c0,0,5.8-24,7.5-28.6l-0.4-1.2l-0.9-2.5
	l2.2-0.8l3.3,1l2.3,0.2L381.3,239z"/>
<path class="st11" d="M383.5,222.6l-5.5,4.9c0.3,0.9,0.5,1.8,0.6,2.7c2.1-0.4,5-2.8,5.1-5C383.8,224.4,383.7,223.5,383.5,222.6z"/>
<path class="st8" d="M389.3,231.7c-3.8,1.9-7.7,3.4-11.8,4.5c-0.2-1.7,0-3.5,0.6-5.1l-5.8,2.1c0,0-0.9,4.1,0.1,6.3l4.4-2.4l4.2,4
	c0,0,8.9-2.3,10.8-6.5L389.3,231.7z"/>
<path class="st11" d="M360.1,247.3l-3.5,10.1c21.5,16.8,39.9,10.2,43.9,3.3c0.9-5.3,1.4-10.6,1.7-15.9c-4.4-0.6-8.3-3.8-10-2.9
	c-2.8,1.6-12.5,6.2-17.1,6.8C371.4,249.2,360.1,247.3,360.1,247.3z"/>
<path class="st8" d="M368.9,206.2c-1.1,2.5-1.2,7.9,2.7,6.6C375.6,211.4,370.9,201.9,368.9,206.2z"/>
<path class="st18" d="M388,211.7c-0.3,6.7-0.1,10.7-3.6,14.2c-5.2,5.2-13.9,2.2-15.7-4.5c-1.6-6-0.8-16,6-18.7
	c1.5-0.6,3.1-0.8,4.8-0.7c1.6,0.2,3.2,0.7,4.5,1.6c1.3,0.9,2.4,2.1,3.1,3.5C387.8,208.6,388.1,210.1,388,211.7z"/>
<path class="st8" d="M393,205.3l-7.5-2.1l-1.2,4.1l0.5-0.1c0,0-1.1,6.2,2,9.1C392.6,213.9,395.6,208.4,393,205.3z"/>
<path class="st18" d="M390.9,217.2c-0.2,0.8-0.7,1.5-1.2,2.2c-0.6,0.6-1.2,1.2-2,1.6c-2.1,1-3.6-0.6-3.4-2.8
	c0.1-1.9,1.4-4.8,3.7-4.9c0.5,0,1,0.1,1.4,0.3c0.5,0.2,0.8,0.5,1.1,0.9c0.3,0.4,0.5,0.8,0.6,1.3
	C391.1,216.3,391.1,216.8,390.9,217.2z"/>
<path class="st8" d="M377.5,213.7c0,0.5-0.3,1-0.6,1c-0.4,0-0.7-0.4-0.7-1c0-0.6,0.3-1,0.7-1C377.1,212.6,377.4,213.1,377.5,213.7z"
	/>
<path class="st8" d="M371,213.7c0,0.5-0.3,1-0.7,1c-0.4,0-0.7-0.4-0.7-1c0-0.5,0.3-1,0.7-1C370.7,212.7,371,213.2,371,213.7z"/>
<path class="st19" d="M373.1,214c-0.7,1.6-1.6,3.1-2.7,4.5c0.4,0.3,0.8,0.4,1.3,0.5c0.5,0.1,0.9,0,1.4-0.1L373.1,214z"/>
<path class="st8" d="M376.2,221c-0.2,0-0.5,0-0.7,0c0,0,0,0-0.1,0c0,0,0,0-0.1,0c0,0,0,0,0-0.1c0,0,0,0,0-0.1c0,0,0-0.1,0-0.1
	c0,0,0.1,0,0.1,0c0.7,0,1.4-0.1,2-0.4c0.6-0.3,1.2-0.7,1.6-1.3c0,0,0.1,0,0.1,0c0,0,0.1,0,0.1,0c0,0,0,0,0,0c0,0,0,0,0,0.1
	c0,0,0,0,0,0.1c0,0,0,0,0,0c-0.4,0.5-0.8,0.9-1.4,1.2C377.4,220.7,376.8,220.9,376.2,221z"/>
<path class="st8" d="M379.4,211.6c-0.1,0-0.1,0-0.2,0c-0.1,0-0.1-0.1-0.1-0.1c-0.2-0.3-0.6-0.6-0.9-0.8c-0.4-0.2-0.8-0.3-1.2-0.3
	c-0.1,0-0.2,0-0.2-0.1c-0.1-0.1-0.1-0.1-0.1-0.2c0-0.1,0-0.2,0.1-0.2c0-0.1,0.1-0.1,0.2-0.1c0.5,0,1.1,0.1,1.5,0.3
	c0.5,0.2,0.9,0.6,1.2,1c0,0,0,0.1,0.1,0.1c0,0,0,0.1,0,0.1c0,0,0,0.1,0,0.1c0,0-0.1,0.1-0.1,0.1L379.4,211.6z"/>
<path class="st8" d="M368.2,211.6c-0.1,0-0.1,0-0.2,0c-0.1,0-0.1-0.1-0.2-0.2c0-0.1,0-0.2,0-0.2c0.2-0.5,0.5-0.9,1-1.2
	c0.4-0.3,0.9-0.5,1.4-0.6c0.1,0,0.2,0,0.2,0.1c0.1,0.1,0.1,0.1,0.1,0.2c0,0.1,0,0.2-0.1,0.2c0,0.1-0.1,0.1-0.2,0.1
	c-0.4,0.1-0.8,0.2-1.1,0.5c-0.3,0.3-0.6,0.6-0.7,0.9c0,0-0.1,0.1-0.1,0.1C368.3,211.6,368.3,211.6,368.2,211.6z"/>
<path class="st8" d="M386.7,209.4c-0.2,0.1-0.3,0.1-0.5,0.2c-0.5,0.2-1,0.2-1.6,0.1c-0.5-0.1-1-0.3-1.4-0.6c-1.7-1.3-0.9-6.6-7-5.2
	c-0.6-0.3-1.2-0.4-1.8-0.3c-0.6,0.1-1.2,0.3-1.7,0.7c-1.8,1.3-2.3,7.5-5.1,5.9c-2.7-1.5-2-2.3-2-2.3s0.7,0.7,1.2,0.4
	c-0.3-0.5-0.5-1-0.5-1.6c0-0.6,0.2-1.1,0.5-1.6c0,0,0.5,1,1,0.9c0.1-2.5,1-4.9,2.6-6.9c2.7-3.7,12.9-0.3,12.9-0.3s1.9-1.8,6.2,0.8
	c4.4,2.6,5.1,8.5,3.7,10.8"/>
<path class="st8" d="M329.9,277.2c-2.2,0-4.3-0.4-6.4-1.1c-4.8-1.8-8.8-5.2-11.1-9.6c-2.3-4.4-2.9-9.5-1.5-14.3
	c0.6-2.3,1.8-4.4,3.3-6.3s3.5-3.4,5.7-4.4s4.6-1.7,7.1-1.8c2.5-0.1,4.9,0.2,7.2,1.1c4.8,1.8,8.8,5.2,11.1,9.6
	c2.3,4.4,2.9,9.5,1.5,14.3c-0.7,2.3-1.8,4.4-3.3,6.3c-1.6,1.8-3.5,3.4-5.7,4.4C335.4,276.6,332.7,277.2,329.9,277.2z M327.9,243.2
	c-2.2,0-4.4,0.5-6.3,1.5c-1.8,0.9-3.3,2.1-4.5,3.6c-1.2,1.5-2.2,3.2-2.7,5c-1.1,3.9-0.6,8.1,1.3,11.8c1.9,3.6,5.2,6.4,9.2,7.9
	c1.8,0.7,3.8,1,5.8,0.9c2-0.1,3.9-0.6,5.7-1.5c1.8-0.9,3.3-2.1,4.6-3.6c1.2-1.5,2.2-3.2,2.7-5c1.1-3.9,0.7-8.1-1.3-11.8
	c-1.9-3.6-5.2-6.4-9.1-7.9C331.4,243.5,329.7,243.2,327.9,243.2z"/>
<path class="st18" d="M398.8,253.1c-5.3,3.3-11.1,6-17.1,8c-3.9,1.3-7.9,0.3-11.6-0.6c-8.8-2.7-17.3-6.4-25.3-11l2.3-4.6
	c4.2,1.4,8.4,2.8,12.6,4c5.8,1.6,12.2,3.8,17.9,3.7c0.8-0.1,0.1,0,1.5-0.6l2.8-1.4c3.7-2,7.5-4.1,11.2-6.2L398.8,253.1z"/>
<path class="st18" d="M347.4,244.7l-7-1.4l2.1,8.5c0,0,6.2-0.1,6.5-3.3L347.4,244.7z"/>
<path class="st18" d="M335.1,245.8l2.1,6.9l5.3-0.9l-2.1-8.5L335.1,245.8z"/>
<path class="st8" d="M400.7,236.4c8.2,5.3,3,14,0,18.2c-3,4.2-22.2,9.8-25.5,9.4s-18.6-7.3-18.6-7.3l3.9-8.8c0,0,10.5,2.9,14,3.3
	C377.9,251.6,400.7,236.4,400.7,236.4z"/>
<path class="st10" d="M400.7,236.4c8.2,5.3,3,14,0,18.2c-3,4.2-22.2,9.8-25.5,9.4s-18.6-7.3-18.6-7.3l3.9-8.8c0,0,10.5,2.9,14,3.3
	C377.9,251.6,400.7,236.4,400.7,236.4z"/>
<path class="st8" d="M361.1,247.5l-3.6,10.8l-3-1.8l3.2-9.7L361.1,247.5z"/>
<path class="st8" d="M350.1,272.8c-3.8-9.1-17.1-21.5-21.2-24.8c-4.1-3.3-15.1-4.5-34.1-4c-6.3,0.3-12.5,1.9-18,4.8
	c-14.7,0.1-38.9,0.4-48.7,1.2c-7.3,0.6-26.5,2.6-28.1,9.3c-1.7,6.7,9,22.9,10,22.9h54.5c0,0.9,0.2,1.7,0.5,2.5
	c0.8,0.6,61.6,5,61.6,5S354,281.9,350.1,272.8z"/>
<path class="st20" d="M350.1,272.8c-3.8-9.1-17.1-21.5-21.2-24.8c-4.1-3.3-15.1-4.5-34.1-4c-6.3,0.3-12.5,1.9-18,4.8
	c-14.7,0.1-38.9,0.4-48.7,1.2c-7.3,0.6-26.5,2.6-28.1,9.3c-1.7,6.7,9,22.9,10,22.9h54.5c0,0.9,0.2,1.7,0.5,2.5
	c0.8,0.6,61.6,5,61.6,5S354,281.9,350.1,272.8z"/>
<g class="st3">
	<path class="st4" d="M491.2,247.5c-7,0.3-14.1,0.6-21.1,1.1l-1.6,0.1l-3.1,0.2l-1.5,0.1c-9.7,0.6-19.3,1.4-28.7,2.2
		c9.3-22.5,15.7-42.3,16.2-43.9c-5.5,13-18.2,25.7-18.2,25.7c6.5-12.9,11.9-26.2,16.1-39.9c5.4,0.6,8.9,1.2,10.1,1.4l0.4,0.1
		c0,0,0,0,0,0.1c0.3,0.4,0.7,0.8,1,1.2l0.4,0.5C479.3,218.8,491.2,247.5,491.2,247.5z"/>
	<path class="st4" d="M254.7,227.9c18.4-10.4,35.9-19,37.4-19.8c-19.7,10.6-42.2,30.9-57.4,45.7c-24.4,1-36.8,3.3-36.8,3.3
		c18.3-23.1,39.4-44.1,62.9-62.5c17.8-2.6,35.9-3.8,53.9-3.6C283.1,204.3,255.7,227,254.7,227.9z"/>
</g>
<path class="st8" d="M369.2,326.9h-16.6c-18.5,0-33.5,19.9-33.5,44.5c0,24.6,15,44.5,33.5,44.5h16.6c18.5,0,33.5-19.9,33.5-44.5
	C402.7,346.9,387.7,326.9,369.2,326.9z"/>
<path class="st21" d="M374.5,412.8c15.4,0,28-18.5,28-41.3c0-22.8-12.5-41.3-28-41.3c-15.4,0-28,18.5-28,41.3
	C346.5,394.3,359,412.8,374.5,412.8z"/>
<path class="st22" d="M376.9,349.1c-8.3,0-15.1,10-15.1,22.3s6.8,22.3,15.1,22.3c8.3,0,15.1-10,15.1-22.3S385.2,349.1,376.9,349.1z"
	/>
<path class="st8" d="M177.8,326.9h-16.6c-18.5,0-33.5,19.9-33.5,44.5c0,24.6,15,44.5,33.5,44.5h16.6c18.5,0,33.5-19.9,33.5-44.5
	C211.3,346.9,196.3,326.9,177.8,326.9z"/>
<path class="st21" d="M183.1,412.8c15.4,0,28-18.5,28-41.3c0-22.8-12.5-41.3-28-41.3c-15.4,0-28,18.5-28,41.3
	C155.1,394.3,167.6,412.8,183.1,412.8z"/>
<path class="st22" d="M185.5,393.8c8.3,0,15.1-10,15.1-22.3c0-12.3-6.8-22.3-15.1-22.3s-15.1,10-15.1,22.3
	C170.4,383.8,177.2,393.8,185.5,393.8z"/>
<path class="st8" d="M520.3,323.2l0.2,45.8c0,1.7-0.3,3.5-1,5.1c-0.7,1.6-1.7,3.1-3,4.3c-1.3,1.2-2.8,2.2-4.5,2.9
	c-1.7,0.7-3.5,1-5.3,1H385.5c-5,4.9-11.1,8.9-17.7,11.5c-6.6,2.7-13.8,4.1-21,4.1h-77.6l-8.8-12.7h-17.7l-2.3,2.1
	c-6.5,5.9-15.1,9.2-24.1,9.2c-4.7,0-9.3-0.9-13.7-2.7s-8.2-4.4-11.5-7.6l-1.1-1.1h-40.4c-3.2,0-6.4-1.1-8.8-3.1
	c-2.5-2-4.1-4.8-4.7-7.8l-10.8-59.6L520.3,323.2z"/>
<path class="st0" d="M530.2,314.5l-6.5-4.6c-5.9-35.8-14.3-51.6-14.3-51.6l-14.6-12c-5.6-19.5-26-52.3-36.7-56.1H458
	c-1.7-0.4-40.8-8.4-102-8.4c-76.5,0-98.5,12.3-98.5,12.3c-30.4,21.5-65.2,63.3-65.2,63.3c-18.2,6.5-35,16.1-49.6,28.5
	c-1.6,1.4-3.3,2.9-4.8,4.4c-1.4,1.3-2.7,2.6-4,4c-1,1.1-2,2.1-2.9,3.2c-3.4,4-6.3,8.3-8.7,12.9c-1.6,3-3,6.1-4.3,9.2
	c-0.5,1.2-0.9,2.3-1.2,3.4c-0.2,0.7-5.9,7-5.9,7c-3.3,1.7,1.1,27.4,7,40.7c0.4,0.9,1.1,1.6,1.9,2.2c0.8,0.5,1.8,0.8,2.8,0.8h158.9
	c0.3-31.1,19.4-56.2,43-56.2s42.7,25.1,43,56.2h72.9c0.3-31.1,19.4-56.2,43-56.2c4.7,0,9.3,1,13.6,2.9c16,7,27.8,26.2,29.3,49.2
	c0,0.4,0,0.8,0.1,1.1c0.4-0.4,0.8-0.9,1.1-1.4c0.5-0.3,1-0.6,1.4-1.1c0.4-0.5,0.7-1,0.8-1.5C535.9,350.7,530.2,314.5,530.2,314.5z
	 M198,257.1c18.3-23.1,39.5-44.1,62.9-62.5c53.9-8.2,110.1,0,110.1,0c-23.1,24.6-40.6,62.5-40.6,62.5
	C243.4,248.7,198,257.1,198,257.1z M340.9,262.3c10.4-38.2,38.4-67.6,38.4-67.6c12.3-1.8,24.8-2.7,37.3-2.9c0.9,7,2.9,25.4,3.4,60.9
	C375.2,257,340.9,262.3,340.9,262.3z M470,248.6l-1.6,0.1l-3.1,0.2l-1.5,0.1c-13.1,0.9-26.1,1.9-38.3,3.1c-0.5-14.7-1.6-42-4.2-60.3
	c12.7-0.1,25.4,0.9,38,2.9l0.4,0.1c0,0,0,0,0,0.1c0.4,0.4,0.7,0.8,1,1.2l0.4,0.5c18.1,22.3,29.9,51,29.9,51
	C484.1,247.8,477.1,248.1,470,248.6z"/>
<path class="st8" d="M325.1,326.9h-16.6c-18.5,0-33.5,19.9-33.5,44.5c0,24.6,15,44.5,33.5,44.5h16.6c18.5,0,33.5-19.9,33.5-44.5
	C358.5,346.9,343.5,326.9,325.1,326.9z"/>
<path class="st10" d="M330.3,412.8c15.4,0,28-18.5,28-41.3c0-22.8-12.5-41.3-28-41.3c-15.4,0-28,18.5-28,41.3
	C302.3,394.3,314.9,412.8,330.3,412.8z"/>
<path class="st7" d="M332.7,349.1c-8.3,0-15.1,10-15.1,22.3s6.8,22.3,15.1,22.3c8.3,0,15.1-10,15.1-22.3S341.1,349.1,332.7,349.1z"
	/>
<path class="st8" d="M481.1,326.9h-16.6c-18.5,0-33.5,19.9-33.5,44.5c0,24.6,15,44.5,33.5,44.5h16.6c18.5,0,33.5-19.9,33.5-44.5
	C514.6,346.9,499.6,326.9,481.1,326.9z"/>
<path class="st10" d="M486.4,412.8c15.4,0,28-18.5,28-41.3c0-22.8-12.5-41.3-28-41.3c-15.4,0-28,18.5-28,41.3
	C458.4,394.3,470.9,412.8,486.4,412.8z"/>
<path class="st7" d="M488.8,393.8c8.3,0,15.1-10,15.1-22.3c0-12.3-6.8-22.3-15.1-22.3s-15.1,10-15.1,22.3
	C473.7,383.8,480.4,393.8,488.8,393.8z"/>
<path class="st8" d="M140.8,375.5l4.8-22.5c0.2-1.1,0.8-2.1,1.7-2.8c0.9-0.7,2-1.1,3.2-1.1h34.7c1.6,0,3.2,0.4,4.5,1.3
	c1.4,0.8,2.4,2,3.1,3.4l11,21.7H140.8z"/>
<path class="st23" d="M294.2,307.7l-23.5,14.2l-49.9,10.3h-82.6l-21.8-9.2c0.4-1.1,0.8-2.2,1.2-3.4c1.3-3.1,2.7-6.2,4.3-9.2
	c0.1-0.1,0.1-0.3,0.2-0.4c2.4-4.4,5.2-8.6,8.5-12.4c1-1.1,1.9-2.2,2.9-3.2c10.1,2.4,13.4,13.3,13.4,13.3l1.8,17l0.5,4.9h56.6
	l3.5-4.9l12.3-17c0,0,17-8.6,31.3-11.4c11.4-2.2,33.2-2.4,33.2-2.4C293,296.3,294.2,307.7,294.2,307.7z"/>
<path class="st4" d="M261.7,311.6c-0.6,4.3-3.9,7.4-7.4,7c-3.5-0.4-5.9-4.2-5.3-8.5c0.6-4.3,3.9-7.4,7.4-7
	C259.9,303.5,262.2,307.3,261.7,311.6z"/>
<path class="st4" d="M242.7,320.2c2.7-5.6,1.2-11.9-3.4-14c-4.6-2.1-10.6,0.8-13.3,6.4c-2.7,5.6-1.2,11.9,3.4,14
	C233.9,328.7,239.9,325.9,242.7,320.2z"/>
<path class="st4" d="M145.8,320.2c2.7-5.6,1.2-11.9-3.4-14c-4.6-2.1-10.6,0.8-13.3,6.4c-2.7,5.6-1.2,11.9,3.4,14
	C137.1,328.7,143.1,325.9,145.8,320.2z"/>
<path class="st4" d="M134,304.8c-1.4,0.6-2.7,1.4-3.8,2.5c-1.1,1.1-1.9,2.4-2.4,3.8c-0.6,1.4-0.9,3-0.9,4.5c-0.2,0-0.3,0-0.5-0.1
	c-2-0.8-2.2-4.6-0.6-8.6c1.7-4,4.6-6.6,6.6-5.9C133.4,301.4,134,302.9,134,304.8z"/>
<path class="st8" d="M247.4,347.9l3,0.7c0.6,0.1,1.1,0.5,1.4,0.9c0.3,0.5,0.5,1.1,0.4,1.6l-2.6,15.1c-0.1,0.5-0.4,1-0.8,1.3
	c-0.4,0.3-1,0.5-1.5,0.5h-23.4c-0.6,0-1.2-0.2-1.7-0.7c-0.4-0.4-0.7-1-0.7-1.6c0-0.5,0.2-1,0.5-1.4c0.3-0.4,0.8-0.7,1.4-0.8
	c3.7-0.7,12.6-3.5,21.6-14.9c0.3-0.4,0.7-0.6,1.1-0.8C246.4,347.8,246.9,347.8,247.4,347.9z"/>
<path class="st8" d="M247.4,347.9l-18.6-0.1l18.6,4.6V347.9z"/>
<path class="st8" d="M127.7,347.9l-13.9,1.2l7,20.3h10.9l-2.4-5.1c-4.8-2.7-8.6-6.9-10.7-11.8L127.7,347.9z"/>
<path class="st23" d="M247.6,362.6c0,2.5-1.7,4.6-3.9,4.6c-2.2,0-3.9-2.1-3.9-4.6c0-2.5,1.7-4.6,3.9-4.6S247.6,360.1,247.6,362.6z"
	/>
<path class="st23" d="M124.6,362.7c0.7,2.4,0.3,4.7-0.8,5s-2.7-1.4-3.4-3.9s-0.3-4.7,0.8-5S123.9,360.3,124.6,362.7z"/>
<path class="st23" d="M179.1,314.5h-9.6c-0.2,0-0.4,0-0.5,0.1c-0.2,0.1-0.3,0.2-0.4,0.3c-0.1,0.1-0.2,0.3-0.2,0.5c0,0.2,0,0.4,0,0.5
	l2.8,8.3c0.1,0.2,0.2,0.4,0.3,0.5c0.2,0.1,0.4,0.2,0.6,0.3c0.2,0,0.4,0,0.6-0.1c0.2-0.1,0.4-0.2,0.5-0.4l6.8-8.3
	c0.1-0.2,0.2-0.4,0.2-0.6c0-0.2,0-0.4-0.1-0.6c-0.1-0.2-0.2-0.4-0.4-0.5C179.5,314.6,179.3,314.5,179.1,314.5z M176.2,316.5
	l-3.4,4.2c-0.1,0.1-0.2,0.1-0.3,0.2c-0.1,0-0.2,0-0.3,0c-0.1,0-0.2-0.1-0.3-0.1c-0.1-0.1-0.1-0.2-0.2-0.3l-1.4-4.2
	c0-0.1,0-0.2,0-0.3c0-0.1,0.1-0.2,0.1-0.2c0.1-0.1,0.1-0.1,0.2-0.2c0.1,0,0.2-0.1,0.3-0.1h4.8c0.1,0,0.2,0,0.3,0.1
	c0.1,0.1,0.2,0.1,0.2,0.2s0.1,0.2,0.1,0.3C176.3,316.3,176.3,316.4,176.2,316.5z"/>
<path class="st11" d="M294.2,307.7l-23.5,14.2l-49.9,10.3h-82.6l-21.8-9.2c0.4-1.1,0.8-2.2,1.2-3.4c1.3-3.3,2.8-6.5,4.5-9.7
	l-1.7,10.1c-0.1,0.9,0,1.7,0.4,2.5c0.4,0.8,1.1,1.4,1.9,1.7l12.5,5.4c1,0.4,2.1,0.6,3.2,0.5c1.1-0.1,2.1-0.4,3.1-1l7.5-4.6l0.5,4.9
	h56.6l3.5-4.9l7.9,5.1c0.7,0.4,1.4,0.7,2.2,0.9c0.8,0.1,1.6,0.1,2.3,0l44.4-9c1.3-0.3,2.6-0.9,3.6-1.8c1-0.9,1.8-2,2.2-3.3l2.6-8.1
	c0.4-1.1,0.3-2.3,0-3.4c-0.4-1.1-1.1-2.1-2-2.8l-6.4-4.8c11.4-2.2,20.1-3.6,20.1-3.6C293,296.3,294.2,307.7,294.2,307.7z"/>
<path class="st8" d="M149.1,324.7h2.4l0.5,3.6h52l2.6-3.6l3.3,0l-3.5,4.9h-56.6L149.1,324.7z"/>
<path class="st8" d="M147,332.3l2.1-1.5h57.4l1.3,1.5H147z"/>
<path class="st11" d="M530.2,314.5l-6.5-4.6c-1.6-10-3.7-19.8-6.4-29.6c-3.8-13.7-7.2-20.7-7.8-21.9c0-0.1-0.1-0.1-0.1-0.2l-14.6-12
	c-5.6-19.5-26-52.3-36.7-56.1H458c-57.4-7.1-81.1,1.5-81.1,1.5c-30.1,35.3-42.4,70.6-42.4,70.6c-17,9-33,19.6-47.8,31.6
	c1.2,11.1-6.8,22.5-6.8,22.5l-9.1,5.5l1,12.7c-5.7,17.3-14.6,39-14.6,39h24.3c0.3-31.1,19.4-56.2,43-56.2c23.6,0,42.7,25.1,43,56.2
	h72.9c0.3-31.1,19.4-56.2,43-56.2c4.7,0,9.3,1,13.6,2.9c16,7,27.8,26.2,29.3,49.2c0,0.4,0,0.8,0.1,1.2c0.4-0.4,0.8-0.9,1.1-1.4
	c0.5-0.3,1-0.6,1.4-1.1c0.4-0.5,0.7-1,0.8-1.5C535.9,350.7,530.2,314.5,530.2,314.5z M340.9,262.3c10.4-38.2,38.4-67.6,38.4-67.6
	c12.4-1.8,24.8-2.7,37.3-2.9c0.9,7,2.9,25.4,3.4,60.9C375.2,257,340.9,262.3,340.9,262.3z M470,248.6l-1.6,0.1l-3.1,0.2l-1.5,0.1
	c-13.1,0.9-26.1,1.9-38.3,3.1c-0.5-14.7-1.6-42.1-4.2-60.3c12.7-0.1,25.4,0.9,38,2.9l0.4,0.1c0,0,0,0,0,0.1c0.4,0.4,0.7,0.8,1,1.2
	l0.4,0.5c18.1,22.3,29.9,51,29.9,51C484.1,247.8,477.1,248.1,470,248.6z"/>
<path class="st8" d="M470,248.6l-1.6,0.1c-3.9-30.6-7.1-46.3-9.1-54.1l0.4,0.1c0,0,0,0,0,0.1c0.4,0.4,0.7,0.8,1,1.2
	C465.7,216.7,468.6,236.8,470,248.6z"/>
<path class="st0" d="M267.3,373.7h11.4c2.4,0,4.8-0.8,6.7-2.2c1.9-1.4,3.3-3.5,3.8-5.8c3-12,11.6-34,35.8-38.8
	c25.5-5,33.9,24.2,36.6,38.8c0.4,2.2,1.6,4.2,3.4,5.7c1.8,1.4,4,2.2,6.4,2.2h2.7c0,0,0-71.3-53.4-65.7c-37.7,4-48.3,57.9-48.3,57.9
	L267.3,373.7z"/>
<path class="st11" d="M267.3,373.7h11.4c2.4,0,4.8-0.8,6.7-2.2c1.9-1.4,3.3-3.5,3.8-5.8c3-12,11.6-34,35.8-38.8
	c25.5-5,33.9,24.2,36.6,38.8c0.4,2.2,1.6,4.2,3.4,5.7c1.8,1.4,4,2.2,6.4,2.2h2.7c0,0,0-71.3-53.4-65.7c-37.7,4-48.3,57.9-48.3,57.9
	L267.3,373.7z"/>
<path class="st0" d="M423.4,373.7h11.4c2.4,0,4.8-0.8,6.7-2.2c1.9-1.4,3.3-3.5,3.8-5.8c3-12,11.6-34,35.8-38.8
	c25.5-5,34,24.2,36.6,38.8c0.4,2.2,1.6,4.2,3.4,5.7c1.8,1.5,4,2.2,6.4,2.2h2.7c0,0,0-71.3-53.4-65.7c-37.7,4-48.3,57.9-48.3,57.9
	L423.4,373.7z"/>
<path class="st11" d="M423.4,373.7h11.4c2.4,0,4.8-0.8,6.7-2.2c1.9-1.4,3.3-3.5,3.8-5.8c3-12,11.6-34,35.8-38.8
	c25.5-5,34,24.2,36.6,38.8c0.4,2.2,1.6,4.2,3.4,5.7c1.8,1.5,4,2.2,6.4,2.2h2.7c0,0,0-71.3-53.4-65.7c-37.7,4-48.3,57.9-48.3,57.9
	L423.4,373.7z"/>
<path class="st11" d="M328.8,307.8c6.6-0.5,13.2,1.6,18.9,4.9c5.7,3.5,10.5,8.1,14.2,13.5c3.7,5.4,6.7,11.2,8.8,17.2
	c2.1,6.1,3.8,12.3,5,18.6l-1.6-1.3l28.5-0.1l28.5,0.1l-1.7,1.3c1.7-6.4,4-12.6,6.9-18.6c2.8-6,6.3-11.7,10.5-16.9
	c4.1-5.3,9.2-9.7,15.1-13.2c2.9-1.7,6.1-3,9.4-4c3.2-0.9,6.6-1.4,10-1.5c-3.3,0.4-6.6,1.1-9.8,2.1c-3.1,1.1-6.1,2.6-8.9,4.4
	c-5.4,3.7-10.1,8.2-13.9,13.5c-3.8,5.2-7.1,10.8-9.6,16.7c-2.6,5.8-4.8,11.9-6.3,18.1l-0.3,1.3H431l-28.5,0.1l-28.5-0.1h-1.3
	l-0.2-1.3c-1.1-6.2-2.6-12.2-4.5-18.2c-1.9-5.9-4.6-11.6-8-17c-3.3-5.3-7.8-10-13-13.6C341.7,310.1,335.3,308,328.8,307.8z"/>
<path class="st0" d="M271.7,334.7c0,0,35.1-31.4,69.2-24.2c0,0-15.8-7.8-46.7-2.7l-26.9,17L271.7,334.7z"/>
<path class="st0" d="M343.5,271.1c0,0,136.1-15.5,165.9-12.8l-11.7-9.6C497.6,248.7,360.3,258.1,343.5,271.1z"/>
<path class="st23" d="M517.3,280.4c-6.5-11.7-13.4-15-13.4-15l-7.7-10.7c4.7,0.1,9.3,1.4,13.3,3.8
	C510.1,259.7,513.5,266.7,517.3,280.4z"/>
<path class="st8" d="M381.8,265.5c0,2.4-25.5,6.5-26,6.5c-0.4,0-5.4-0.8-5.4-0.8l-9.1,0.8c-0.3-0.3-0.5-0.6-0.7-0.9
	c-0.4-0.7-0.6-1.5-0.6-2.3c0-0.3,0-0.5,0-0.8c0-1.9,0.3-3.8,0.8-5.7c1.9,0.2,3.8,0,5.5-0.6c1.8-0.6,3.4-1.4,4.9-2.6
	c1.3-3.1,3.1-6.6,5.1-8c0,0,18,1.2,21.7,3.3C381.8,256.4,381.8,265.5,381.8,265.5z"/>
<path class="st0" d="M381.8,265.5l-1-0.8c0,0-28,5.5-28.2,0c-0.2-5.5,3.7-13.7,3.7-13.7s18.1,1.2,21.8,3.3S381.8,265.5,381.8,265.5z
	"/>
<path class="st11" d="M381.8,265.5c0,2.4-25.5,6.5-26,6.5c-0.4,0-5.4-0.8-5.4-0.8l-9.1,0.8c-0.3-0.3-0.5-0.6-0.7-0.9
	c-0.4-0.7-0.6-1.5-0.6-2.3l10.4-1.9l2.2-2.7c7.5-0.1,15-0.6,22.4-1.5c0.4-0.1,0.9-0.3,1.1-0.6c0.3-0.3,0.4-0.8,0.4-1.2
	c0-1.5,0-3.6,0-4.6c0.2-0.8,0.6-1.4,1.2-1.9C381.8,256.4,381.8,265.5,381.8,265.5z"/>
</svg>
