<?xml version="1.0" encoding="utf-8"?>
<!-- Generator: Adobe Illustrator 27.5.0, SVG Export Plug-In . SVG Version: 6.00 Build 0)  -->
<svg version="1.1" id="Calque_1" xmlns="http://www.w3.org/2000/svg" xmlns:xlink="http://www.w3.org/1999/xlink" x="0px" y="0px"
	 viewBox="0 0 648.2 406.8" style="enable-background:new 0 0 648.2 406.8;" xml:space="preserve">
<style type="text/css">
	.st0{fill:#6B9C68;}
	.st1{fill:#7F8FA6;}
	.st2{fill:#F5F5F5;}
	.st3{fill:#669F59;}
	.st4{fill:#B97964;}
	.st5{fill:#263238;}
	.st6{opacity:0.7;fill:#FFFFFF;enable-background:new    ;}
	.st7{opacity:0.2;fill:#7F8FA6;enable-background:new    ;}
	.st8{fill:#A24E3F;}
	.st9{opacity:0.4;fill:#7F8FA6;enable-background:new    ;}
	.st10{opacity:0.3;fill:#7F8FA6;enable-background:new    ;}
	.st11{opacity:0.5;fill:#7F8FA6;enable-background:new    ;}
	.st12{opacity:0.8;fill:#566D6B;enable-background:new    ;}
	.st13{opacity:0.3;}
	.st14{fill:#566D6B;}
	.st15{opacity:0.6;fill:#7F8FA6;enable-background:new    ;}
	.st16{opacity:0.8;fill:#52606F;enable-background:new    ;}
	.st17{fill:#EBB373;}
	.st18{fill:#DC5753;}
	.st19{fill:#E4873E;}
	.st20{opacity:0.1;fill:#7F8FA6;enable-background:new    ;}
</style>
<path class="st0" d="M244.1,134.3c-1.6-0.9-3.4-1.4-5.2-1.3c-1.1-1.4-0.2-3.4,0.9-4.8c1.1-1.4,2.4-3,2-4.7c-0.6-2.6-4.2-2.7-6.8-2.2
	c-0.9-1.6-0.9-3.5-1.4-5.3c-0.5-1.8-2-3.7-3.7-3.4c-1.7,0.3-2.8,2.1-4.4,2.5c-1.9,0.5-3.6-1.3-5.2-2.6c-0.2-0.2-0.4-0.3-0.6-0.4
	c0.3-5.3,5.4-4.5,9.7-5.2c3.4-0.6-5.6-9.1,1.3-11.9c1.3-0.4,2.5-1.2,3.3-2.3c0.4-0.8,0.4-1.8,0.1-2.7c-0.3-0.9-0.9-1.6-1.6-2.1
	c-1.6-0.9-3.4-1.4-5.2-1.3c-1.1-1.4-0.2-3.4,0.9-4.8c1.1-1.3,2.4-2.9,2-4.7c-0.6-2.6-4.2-2.7-6.8-2.2c-0.9-1.6-0.9-3.5-1.4-5.3
	c-0.5-1.8-2-3.7-3.7-3.4s-2.8,2.1-4.4,2.5c-1.9,0.5-3.6-1.3-5.2-2.6c-1.5-1.3-4.2-2.1-5.2-0.4c-0.6,1-0.3,2.4-0.9,3.4
	c-1.1,1.7-3.8,0.7-5.5-0.6c-1.7-1.2-4.4-2.3-5.5-0.6c-0.3,0.6-0.5,1.2-0.6,1.8c-0.2,0.4-0.4,0.8-0.7,1.2c-0.3-1.2-0.4-2.5-0.7-3.7
	c-0.5-1.8-2-3.7-3.7-3.4c-1.7,0.2-2.8,2.2-4.4,2.5c-1.9,0.5-3.6-1.3-5.2-2.6c-1.5-1.3-4.2-2.1-5.2-0.4c-0.6,1-0.2,2.4-0.9,3.4
	c-0.1,0.2-0.3,0.4-0.5,0.6c-0.6-0.1-1.1-0.1-1.7-0.1c-1.1-1.3-0.2-3.4,0.9-4.7c1.1-1.4,2.4-3,2-4.7c-0.6-2.6-4.2-2.7-6.9-2.2
	c-0.9-1.6-0.9-3.5-1.4-5.3s-2-3.7-3.7-3.4c-1.7,0.3-2.8,2.1-4.4,2.5c-1.9,0.5-3.6-1.3-5.2-2.6c-1.5-1.3-4.2-2.1-5.2-0.4
	c-0.6,1-0.2,2.4-0.9,3.4c-1.1,1.7-3.8,0.7-5.5-0.6c-1.7-1.2-4.4-2.3-5.5-0.6c-0.3,0.6-0.5,1.2-0.7,1.8c-0.8,2.3-3.3,3.4-5.2,4.9
	c-1.9,1.5-3.4,4.4-1.8,6.2c0.8,0.9,2.2,1.2,2.6,2.4c0.5,1.3-0.9,2.7-2.1,3.6c-0.7,0.8-1.2,1.8-1.4,2.9s-0.1,2.2,0.3,3.2
	c-0.6,0.5-1.2,0.9-2,1.1c-1.9,0.5-3.6-1.3-5.2-2.6c-1.5-1.3-4.2-2.1-5.2-0.4c-0.6,0.9-0.3,2.4-0.9,3.4c-1.1,1.7-3.8,0.7-5.5-0.6
	c-1.7-1.2-4.4-2.3-5.5-0.6c-0.3,0.6-0.5,1.2-0.7,1.8c-0.8,2.3-3.3,3.4-5.2,4.9c-1.9,1.5-3.4,4.4-1.8,6.2c0.8,0.9,2.1,1.3,2.6,2.3
	c-1.3-0.5-2.9-0.4-3.5,0.6s-0.2,2.4-0.9,3.4c-1.1,1.7-3.8,0.7-5.5-0.6c-1.7-1.2-4.4-2.3-5.5-0.6c-0.3,0.6-0.5,1.2-0.7,1.8
	c-0.8,2.3-3.3,3.4-5.2,4.9c-1.9,1.5-3.4,4.4-1.8,6.2c0.8,0.9,2.2,1.2,2.6,2.4c0.5,1.3-0.9,2.7-2.1,3.6c-1.9,1.6-2.2,6.4,0.3,7.7
	c1.1,0.6,2.6,0.8,2.8,1.9c0.2,1.1-0.8,1.8-1.5,2.6c-0.2,0.2-0.3,0.4-0.4,0.7c-0.3,0.6-0.5,1.2-0.6,1.8c-0.1,0.7,0,1.3,0.2,1.9
	c0.2,0.6,0.5,1.2,0.9,1.7c0.4,0.5,0.9,0.9,1.5,1.2c0.6,0.3,1.3,0.5,1.6,1.1c0.1,0.5,0,0.9-0.2,1.4c-0.2,0.9-0.3,1.8-0.2,2.7
	c0,0.1,0,0.3,0.1,0.4s0.1,0.3,0.2,0.4c0.1,0.1,0.2,0.2,0.4,0.2c0.1,0,0.3,0.1,0.4,0c3.6,0.2,5.3-1.1,7.5,2c0.2,0.3,0.4,0.6,0.8,0.8
	c0.3,0.1,0.6,0.2,0.9,0.2c2.5,0.2,4.1-1.3,6.3-1.6c3.2-0.4,3.8,1.2,6.6,2.5c4.3,2.1,6.4,0.8,7.3-2.2c0.2-0.8,0.3-1.7,0.4-2.6
	c0-0.6,0.1-1.3,0.4-1.9c0.3-0.6,0.7-1.1,1.1-1.6h0.1c2.3,0.2,3.9-1.1,5.9-1.5l1.3-0.1c2.4,0,3.2,1.4,5.7,2.6
	c1.2,0.6,2.4,0.9,3.7,0.9c0.4,1.4-0.9,2.6-2.1,3.5c-1.9,1.6-2.2,6.4,0.3,7.7c1,0.6,2.6,0.9,2.8,1.9c0.2,1.1-0.8,1.8-1.5,2.6
	c-0.2,0.2-0.3,0.4-0.4,0.6c-0.6,1.1-0.8,2.5-0.4,3.8c0.4,1.3,1.2,2.3,2.4,3c0.6,0.3,1.3,0.5,1.6,1.1c0.1,0.5,0.1,1-0.1,1.4
	c-0.2,0.9-0.3,1.8-0.2,2.7c0,0.1,0,0.3,0.1,0.4s0.1,0.3,0.2,0.4c0.1,0.1,0.2,0.2,0.4,0.2c0.1,0,0.3,0.1,0.4,0c3.6,0.2,5.3-1.1,7.5,2
	c0.2,0.3,0.4,0.6,0.8,0.8c0.3,0.1,0.6,0.2,1,0.3c2.5,0.2,4.1-1.4,6.4-1.6c3.1-0.4,3.8,1.2,6.6,2.5c4.4,2.1,6.5,0.8,7.3-2.2
	c0.2-0.8,0.4-1.7,0.4-2.6c0.3-5.3,5.4-4.5,9.8-5.2c0.1,0,0.3-0.1,0.4-0.1s0.2-0.2,0.3-0.3h0.3c2.5,0.2,4.1-1.3,6.3-1.6
	c3.2-0.4,3.8,1.2,6.6,2.5c4.4,2.1,6.5,0.8,7.3-2.2c0.2-0.8,0.4-1.7,0.4-2.6c0.3-4.1,3.4-4.6,6.8-4.9c0.1,0.8,0.3,1.6,0.8,2.3
	c0.4,0.7,1.1,1.2,1.8,1.6c0.6,0.3,1.3,0.5,1.6,1.1c0.1,0.5,0,0.9-0.1,1.4c-0.2,0.9-0.3,1.8-0.2,2.7c0,0.3,0.1,0.6,0.3,0.8
	c0.2,0.2,0.5,0.2,0.8,0.2c3.6,0.2,5.3-1.1,7.5,2c0.2,0.3,0.4,0.6,0.8,0.8c0.3,0.1,0.6,0.2,0.9,0.2c2.5,0.2,4.1-1.3,6.4-1.6
	c3.2-0.4,3.8,1.2,6.6,2.5c4.4,2.1,6.5,0.8,7.3-2.2c0.2-0.8,0.4-1.7,0.4-2.6c0.3-5.3,5.4-4.5,9.8-5.2c3.4-0.6-5.6-9.1,1.2-11.9
	c1.3-0.4,2.5-1.2,3.3-2.3c0.4-0.8,0.4-1.7,0.2-2.5C245.2,135.5,244.8,134.8,244.1,134.3L244.1,134.3z"/>
<path class="st0" d="M118.1,166.1c-1.3-0.8-2.8-1.2-4.3-1.1c-0.9-1.1-0.2-2.9,0.7-4c0.9-1.1,2-2.4,1.7-3.9c-0.5-2.1-3.5-2.2-5.7-1.8
	c-0.8-1.3-0.8-2.9-1.2-4.4s-1.6-3-3.1-2.9c-1.5,0.2-2.3,1.8-3.7,2.1c-1.6,0.4-3-1.1-4.3-2.1s-3.5-1.8-4.4-0.3
	c-0.5,0.9-0.2,2-0.7,2.9c-0.9,1.5-3.2,0.6-4.6-0.5c-1.4-1-3.6-2-4.6-0.5c-0.2,0.5-0.4,1-0.5,1.5c-0.7,1.9-2.7,2.9-4.3,4.1
	c-1.6,1.2-2.8,3.6-1.5,5.1c0.7,0.7,1.8,1,2.2,2c0.4,1.2-0.8,2.2-1.7,3c-1.6,1.3-1.9,5.3,0.2,6.4c0.9,0.5,2.2,0.6,2.4,1.6
	s-0.7,1.5-1.2,2.2c-0.7,0.9-1,2-0.8,3.1s0.7,2.1,1.6,2.7c0.2,0.1,0.3,0.2,0.5,0.4c0.5,0.2,1.1,0.4,1.3,0.9c0.1,0.4,0.1,0.8-0.1,1.2
	c-0.2,0.7-0.3,1.5-0.2,2.2c0,0.3,0.1,0.5,0.3,0.7c0.2,0.1,0.4,0.2,0.7,0.2c3,0.1,4.4-0.9,6.3,1.7c0.2,0.3,0.4,0.5,0.6,0.7
	c0.3,0.1,0.5,0.2,0.8,0.2c2.1,0.2,3.4-1.1,5.3-1.4c2.6-0.3,3.2,1,5.5,2.1c3.6,1.7,5.4,0.7,6-1.8c0.2-0.7,0.3-1.4,0.3-2.1
	c0.3-4.4,4.5-3.8,8.1-4.4c2.8-0.5-4.7-7.6,1-9.9c1.1-0.3,2.1-1,2.8-1.9c0.3-0.7,0.3-1.5,0.1-2.2S118.8,166.6,118.1,166.1
	L118.1,166.1z"/>
<path class="st1" d="M173.3,141.5l4.6-14.8l9.1-11.6l-1.6-1.3l-8.6,9.3l-1.5-14.8h-2.5c0,0,2,17.5-0.9,23.9c0,0-10.6,27-17.1,32.9
	c-0.4,0.3-0.7,0.7-0.9,1.1c-1.9-5-4.4-9.7-7.5-14.1c2.6-6.5,8-20.9,9.9-28.5c1.4-5.9,2.6-12,3.3-18.1l-2.1-0.2c0,0-6,28.4-15.9,41.3
	c-2.9-2.7-6.3-4.9-9.9-6.7c-0.8-4-1.1-10.9,1.5-21.8l-2.1-0.5c-2.6,6.4-3.8,13.3-3.7,20.2c-1.5-0.8-2.9-1.6-4.3-2.6
	c-9.5-6.8-16.3-18.9-16.3-18.9l-1.9,1.9c0,0,8.2,17.9,19.5,23.9s18.8,20.6,19.3,24.4c0.2,1.1,1.5,9.8-0.4,24.9
	c-12.1-5.2-36.1-19.4-37.7-20.7l-2.8,3.8l38.8,27.8c0.6,37-2.2,75.5-2.1,83.8h22.6c-0.6-11.5-5.3-54.7-3.2-99.8
	c0.2-1.1,0.4-2.4,0.6-3.9c1.8-13.9,12.3-32.8,17.3-38.2c3.5-3.7,7.3-7.2,11.3-10.3l-1.4-2.9L173.3,141.5L173.3,141.5z"/>
<path class="st1" d="M352.2,27.1c0-1.4-0.6-2.8-1.6-3.8s-2.4-1.6-3.8-1.6c-0.5,0-1,0.1-1.5,0.2c0.1-0.5,0.1-1.1,0.1-1.6
	c0-3-1.2-5.9-3.3-8s-5-3.3-8-3.3c-0.7,0-1.4,0.1-2.1,0.2c-1.1-1.8-2.8-3.3-4.8-4.1c-2-0.8-4.2-0.9-6.3-0.3c-2.1,0.6-3.9,1.8-5.2,3.5
	s-2,3.8-2.1,5.9h-0.2c-2.4,0.1-4.6,1.1-6.3,2.8c-1.6,1.7-2.6,4-2.6,6.4s0.9,4.6,2.6,6.4c1.6,1.7,3.9,2.7,6.3,2.8H347
	c1.4,0,2.7-0.6,3.7-1.6C351.7,29.9,352.2,28.6,352.2,27.1L352.2,27.1z"/>
<path class="st1" d="M438.3,80.3c0-1.3-0.5-2.6-1.5-3.5c-0.9-0.9-2.2-1.4-3.5-1.4c-0.5,0-1,0.1-1.4,0.2c0.1-0.5,0.1-1,0.1-1.5
	c0-2.8-1.1-5.4-3.1-7.4s-4.6-3.1-7.4-3.1c-0.6,0-1.3,0.1-1.9,0.2c-1-1.7-2.6-3-4.5-3.8s-3.9-0.8-5.8-0.3c-1.9,0.5-3.6,1.7-4.8,3.2
	s-1.9,3.5-1.9,5.5h-0.1c-2.2,0-4.4,0.9-6,2.5c-1.6,1.6-2.5,3.7-2.5,6s0.9,4.4,2.5,6s3.7,2.5,6,2.5h31.1c1.3,0,2.5-0.6,3.4-1.5
	C437.8,82.8,438.3,81.6,438.3,80.3L438.3,80.3z"/>
<path class="st1" d="M153.1,10.2c0-0.8-0.3-1.6-0.9-2.1c-0.6-0.6-1.3-0.9-2.1-0.9c-0.3,0-0.6,0-0.9,0.1c0-0.3,0.1-0.6,0.1-0.9
	c0-1.7-0.7-3.3-1.9-4.4c-1.2-1.2-2.8-1.8-4.4-1.8c-0.4,0-0.8,0-1.2,0.1c-0.6-1-1.6-1.8-2.7-2.3c-1.1-0.4-2.3-0.5-3.5-0.2
	c-1.2,0.3-2.2,1-2.9,2c-0.7,0.9-1.1,2.1-1.2,3.3h-0.1c-1.3,0.1-2.6,0.6-3.5,1.6c-0.9,0.9-1.4,2.2-1.4,3.5s0.5,2.6,1.4,3.5
	s2.2,1.5,3.5,1.6h18.7c0.8,0,1.5-0.4,2.1-0.9C152.7,11.8,153,11,153.1,10.2L153.1,10.2z"/>
<path class="st1" d="M587.1,26.9c0-0.7-0.1-1.4-0.4-2s-0.7-1.2-1.1-1.7c-0.5-0.5-1.1-0.9-1.7-1.1c-0.6-0.3-1.3-0.4-2-0.4
	c-0.5,0-1,0.1-1.5,0.2c0.1-0.5,0.1-1.1,0.1-1.6c0-1.6-0.4-3.2-1-4.7c-0.7-1.5-1.7-2.8-2.9-3.8c-1.2-1-2.7-1.8-4.3-2.2
	s-3.2-0.5-4.8-0.2c-1.1-1.8-2.7-3.2-4.7-3.9s-4.1-0.9-6.1-0.3c-2,0.6-3.8,1.7-5.1,3.4s-2,3.7-2,5.8h-0.2c-2.3,0-4.6,0.9-6.3,2.6
	c-1.7,1.7-2.6,3.9-2.6,6.3s0.9,4.6,2.6,6.3c1.7,1.7,3.9,2.6,6.3,2.6H582c1.4,0,2.7-0.6,3.6-1.6C586.6,29.6,587.1,28.3,587.1,26.9
	L587.1,26.9z"/>
<path class="st1" d="M307.1,90.2c0-1.6-0.6-3.1-1.7-4.2c-1.1-1.1-2.6-1.7-4.2-1.7c-0.6,0-1.1,0.1-1.7,0.2c0.1-0.6,0.1-1.2,0.1-1.8
	c0-1.8-0.4-3.6-1.2-5.3c-0.8-1.7-1.9-3.1-3.3-4.3s-3-2-4.8-2.5c-1.8-0.5-3.6-0.5-5.4-0.2c-1.2-2-3.1-3.6-5.3-4.5
	c-2.2-0.9-4.6-1-6.9-0.4c-2.3,0.6-4.3,2-5.7,3.8c-1.5,1.9-2.2,4.2-2.3,6.5h-0.2c-2.6,0.1-5,1.2-6.8,3.1c-1.8,1.9-2.8,4.4-2.8,6.9
	s1,5.1,2.8,6.9c1.8,1.9,4.2,3,6.8,3.1h36.9c1.5,0,3-0.7,4.1-1.8S307.2,91.7,307.1,90.2L307.1,90.2z"/>
<path class="st1" d="M535.7,286h6.1V67c0-5.3-2.1-10.4-5.8-14.1c-3.8-3.8-8.8-5.8-14.1-5.8h-5.4v6.1h5.4c3.7,0,7.2,1.5,9.7,4
	s4,6.1,4,9.7L535.7,286L535.7,286z"/>
<path class="st1" d="M477.2,54.6h44.2l-1-6.7c-0.2-1.1-0.7-2.1-1.5-2.9c-0.8-0.8-1.8-1.3-2.9-1.4c-2.9-0.4-6.7-1-8.5-1
	c-5.2-0.1-18.1,1.2-24.4,1.9c-1,0.1-2,0.5-2.8,1.2c-0.8,0.7-1.4,1.6-1.6,2.6L477.2,54.6L477.2,54.6z"/>
<path class="st1" d="M481.8,59.3h34.9c1.2,0,2.4-0.5,3.3-1.4s1.4-2.1,1.4-3.3h-44.2c0,0.6,0.1,1.2,0.4,1.8s0.6,1.1,1,1.5
	c0.4,0.4,1,0.8,1.5,1C480.6,59.2,481.2,59.3,481.8,59.3L481.8,59.3z"/>
<path class="st1" d="M514.7,88.8c0,0-0.1,0-0.1,0c0,0-0.1-0.1-0.1-0.1l-8.3-19.5c0,0,0-0.1,0-0.1s0-0.1,0-0.1c0,0,0-0.1,0-0.1
	c0,0,0,0,0.1-0.1s0.1,0,0.1,0s0.1,0,0.1,0c0,0,0,0,0.1,0.1c0,0,0,0.1,0,0.1l8.3,19.5c0,0,0,0.1,0,0.1s0,0.1,0,0.1c0,0,0,0.1,0,0.1
	C514.8,88.7,514.8,88.7,514.7,88.8L514.7,88.8L514.7,88.8z"/>
<path class="st1" d="M497.6,101.2c-0.1,0-0.1,0-0.2-0.1c0,0-0.1-0.1-0.1-0.2c0-5.6,0.2-10.9,0.4-16s0.3-10.3,0.3-16
	c0-0.1,0-0.1,0.1-0.2c0,0,0.1-0.1,0.2-0.1s0.1,0,0.2,0.1c0,0,0.1,0.1,0.1,0.2c0,5.6-0.2,10.9-0.3,16c-0.2,5.1-0.4,10.3-0.4,16
	c0,0.1,0,0.1-0.1,0.2C497.7,101.1,497.6,101.2,497.6,101.2z"/>
<path class="st1" d="M479.3,84.2c0,0-0.1,0-0.1-0.1c0,0,0-0.1,0-0.1c0,0,0-0.1,0-0.1s0-0.1,0-0.1c0,0,0-0.1,0-0.1l12-15.9
	c0,0,0-0.1,0.1-0.1s0.1,0,0.1,0s0.1,0,0.1,0s0.1,0,0.1,0c0,0,0,0.1,0,0.1c0,0,0,0.1,0,0.1s0,0.1,0,0.1c0,0,0,0.1,0,0.1l-12.1,15.9
	C479.4,84.1,479.4,84.2,479.3,84.2C479.3,84.2,479.3,84.2,479.3,84.2L479.3,84.2z"/>
<path class="st2" d="M559.1,398.5c0,3.2-111.8,5.8-249.7,5.8s-249.7-2.6-249.7-5.8s111.8-5.8,249.7-5.8S559.1,395.3,559.1,398.5z"/>
<path class="st3" d="M307.2,68.5c6.7-6.5,15.7-10.1,25.1-10.1c9.4,0.1,18.3,3.8,25,10.4s10.4,15.6,10.5,25
	c0.1,9.4-3.5,18.4-10.1,25.1l-20.1,20.2c-1.4,1.3-3.2,2.1-5.1,2.1s-3.7-0.8-5.1-2.1l-20.2-20.2c-6.7-6.7-10.4-15.8-10.4-25.2
	S300.5,75.1,307.2,68.5L307.2,68.5z M332.4,110.3c3.3,0,6.5-1,9.2-2.8s4.9-4.4,6.1-7.4c1.2-3,1.6-6.4,0.9-9.6
	c-0.6-3.2-2.2-6.2-4.5-8.5c-2.3-2.3-5.3-3.9-8.5-4.5c-3.2-0.6-6.5-0.3-9.6,0.9s-5.6,3.4-7.4,6.1s-2.8,5.9-2.8,9.2
	c0,4.4,1.8,8.6,4.9,11.7C323.8,108.5,328,110.3,332.4,110.3L332.4,110.3z"/>
<path class="st4" d="M624,343.1l9.4-7.4c6,6.8,10.8,13.6,14.4,17.6l-2.2,5.3l-6.1-1.2C634.5,352.4,629.4,347.6,624,343.1L624,343.1z
	"/>
<path class="st3" d="M632.9,352.9l3.6-2.3c3.7,1.9,4.5,0.4,4.9-3c1-0.8,2,0.2,2.3,0.5l6.6,5.9c0.3,0.2,0.4,0.6,0.5,0.9
	s-0.1,0.7-0.3,1c-0.1,0.1-0.2,0.2-0.3,0.3l-8.7,5.6l-12.2,7.8c-3.3,2.1-6.2-0.8-5-2c5.3-5.3,8.6-9.9,9.3-12.9
	C633.7,354.1,633.2,354.1,632.9,352.9L632.9,352.9z"/>
<path class="st5" d="M635.6,356.3C635.6,356.3,635.5,356.3,635.6,356.3c-0.6-0.2-1.1-0.3-1.6-0.3s-1,0.1-1.5,0.3c0,0-0.1,0-0.1,0
	s-0.1,0-0.1,0c0,0-0.1,0-0.1,0s0,0,0-0.1s0-0.1,0-0.1s0-0.1,0-0.1s0-0.1,0-0.1c0,0,0,0,0.1,0c0.5-0.2,1.1-0.4,1.7-0.4
	s1.2,0.1,1.7,0.4c0.1,0,0.1,0.1,0.1,0.1s0,0.1,0,0.2c0,0-0.1,0.1-0.1,0.1C635.7,356.3,635.7,356.3,635.6,356.3L635.6,356.3z"/>
<path class="st5" d="M634.7,358.6L634.7,358.6c-0.6-0.2-1.1-0.3-1.6-0.3s-1,0.1-1.5,0.3c0,0-0.1,0-0.1,0s-0.1,0-0.1,0s-0.1,0-0.1,0
	s0,0,0-0.1s0-0.1,0-0.1s0-0.1,0-0.1s0-0.1,0-0.1c0,0,0,0,0.1,0c0.5-0.2,1.1-0.4,1.7-0.4s1.2,0.1,1.7,0.4c0.1,0,0.1,0.1,0.1,0.1
	c0,0.1,0,0.1,0,0.2c0,0-0.1,0.1-0.1,0.1C634.8,358.6,634.8,358.6,634.7,358.6L634.7,358.6z"/>
<path class="st5" d="M633.3,361C633.3,361,633.3,361,633.3,361c-0.6-0.2-1.1-0.3-1.6-0.3s-1,0.1-1.5,0.3c0,0-0.1,0-0.1,0
	s-0.1,0-0.1,0c0,0-0.1,0-0.1,0s0,0,0-0.1s0-0.1,0-0.1s0-0.1,0-0.1s0-0.1,0-0.1c0,0,0,0,0.1-0.1c0.5-0.2,1.1-0.4,1.7-0.4
	s1.2,0.1,1.7,0.4c0,0,0,0,0.1,0c0,0,0,0,0,0.1s0,0.1,0,0.1c0,0,0,0.1,0,0.1c0,0,0,0.1-0.1,0.1C633.4,361,633.4,361,633.3,361
	L633.3,361z"/>
<path class="st6" d="M650.5,355.9c-0.1,0.1-0.2,0.2-0.3,0.3l-8.7,5.6l-12.2,7.8c-0.6,0.5-1.4,0.7-2.2,0.8c-0.8,0-1.6-0.2-2.2-0.7
	c0.5-0.3,25-15.6,25.2-16l0.5,0.5c0.2,0.2,0.3,0.5,0.3,0.9C650.9,355.4,650.7,355.7,650.5,355.9L650.5,355.9z"/>
<path class="st4" d="M568.8,342.8l14.5,9c-1.1,10.9-3.8,20.8-2.8,26.1l-4.7,3.4l-6.4-6.7C569.5,374.6,570,355.1,568.8,342.8z"/>
<path class="st3" d="M568.9,369.8l4.3-0.1c2.2,3.5,3.6,2.6,5.7,0c1.3-0.2,1.6,1.3,1.7,1.6l2.5,8.5c0.1,0.3,0.1,0.7-0.1,1
	c-0.2,0.3-0.5,0.5-0.8,0.7c-0.1,0-0.3,0.1-0.4,0.1l-10.4,0.2l-14.5,0.3c-4,0.1-4.9-3.9-3.2-4.3c7.3-1.8,12.4-4,14.7-6.2
	C568.9,371.3,568.5,371,568.9,369.8L568.9,369.8z"/>
<path class="st5" d="M569.5,374.1c0,0-0.1,0-0.1,0c0,0-0.1,0-0.1-0.1c-0.3-0.4-0.7-0.8-1.1-1c-0.4-0.3-0.9-0.4-1.4-0.5
	c0,0-0.1,0-0.1,0s0,0-0.1-0.1s0,0,0-0.1c0,0,0-0.1,0-0.1c0,0,0-0.1,0-0.1s0,0,0.1-0.1s0,0,0.1,0c0,0,0.1,0,0.1,0
	c0.6,0.1,1.1,0.3,1.6,0.6c0.5,0.3,0.9,0.7,1.2,1.2c0,0,0,0.1,0,0.2c0,0.1,0,0.1-0.1,0.1C569.6,374.2,569.5,374.2,569.5,374.1
	L569.5,374.1z"/>
<path class="st5" d="M567.5,375.7c0,0-0.1,0-0.1,0c0,0-0.1,0-0.1-0.1c-0.3-0.4-0.7-0.8-1.1-1c-0.4-0.3-0.9-0.4-1.4-0.5
	c-0.1,0-0.1,0-0.2-0.1s-0.1-0.1,0-0.2c0,0,0-0.1,0-0.1s0,0,0.1-0.1c0,0,0,0,0.1,0s0.1,0,0.1,0c0.6,0.1,1.1,0.3,1.6,0.6
	c0.5,0.3,0.9,0.7,1.2,1.2c0,0,0,0.1,0,0.2c0,0.1,0,0.1-0.1,0.1C567.6,375.7,567.6,375.7,567.5,375.7L567.5,375.7z"/>
<path class="st5" d="M565.1,377c0,0-0.1,0-0.1,0c0,0-0.1,0-0.1-0.1c-0.3-0.4-0.7-0.8-1.1-1c-0.4-0.3-0.9-0.4-1.4-0.5
	c0,0-0.1,0-0.1,0c0,0,0,0-0.1-0.1s0,0,0-0.1c0,0,0-0.1,0-0.1c0,0,0-0.1,0-0.1c0,0,0,0,0.1-0.1c0,0,0,0,0.1,0c0,0,0.1,0,0.1,0
	c0.6,0.1,1.1,0.3,1.6,0.6c0.5,0.3,0.9,0.7,1.2,1.2c0,0,0,0.1,0,0.1s0,0.1,0,0.1C565.3,376.9,565.3,377,565.1,377
	C565.2,377,565.2,377,565.1,377L565.1,377L565.1,377z"/>
<path class="st6" d="M582.3,381.5c-0.1,0-0.3,0.1-0.4,0.1l-10.4,0.2l-14.5,0.3c-0.8,0.1-1.6-0.1-2.3-0.5c-0.7-0.4-1.2-1-1.5-1.7
	c0.6,0,29.5-0.4,29.8-0.5l0.2,0.6c0.1,0.3,0,0.7-0.2,0.9S582.6,381.4,582.3,381.5L582.3,381.5z"/>
<path class="st4" d="M588.4,135c0,0-1.6-5.4,0.1-15.4l-0.5-0.2c0.2-1.4,0.5-2.7,0.8-3.8c0,0,0,0,0-0.1l-12.4,9.7
	c0.7,3.1,0.2,9.2-0.1,11.8c0,0-1.2,4.8,5,4.3C585.7,140.9,588.4,135,588.4,135L588.4,135z"/>
<path class="st7" d="M576.6,129.6l7.4-2.6c-0.4,2.5-2.2,5.5-7.5,6.3C576.7,132.1,576.7,130.8,576.6,129.6L576.6,129.6z"/>
<path class="st4" d="M588,109.1c0.1,8.5,0.3,13.3-3.7,17.9c-6,6.9-16.5,3.8-19.1-4.5c-2.3-7.5-2-20.2,6-24c1.8-0.8,3.8-1.2,5.8-1.1
	c2,0.1,3.9,0.7,5.6,1.8c1.7,1.1,3.1,2.5,4,4.3C587.5,105.1,588,107.1,588,109.1L588,109.1z"/>
<path class="st5" d="M588.4,98.8c-1.5-4.6-13.2-3.8-16.3-1.2c-0.5,0.4,6.7,3.4,6.3,3.3l3.3,0.9c0.5-0.1,1.5,0.4,2.1,1.9
	c0,0,0.5,13,4.5,16.5c2.8-1.7,2.7-6.8,3.4-9.9C592.8,105.6,594.1,98.8,588.4,98.8L588.4,98.8z"/>
<path class="st4" d="M591.9,115.9c-0.2,1-0.7,2-1.3,2.8c-0.6,0.8-1.4,1.6-2.3,2.1c-2.4,1.4-3.6-1.3-3.5-4c0.1-2.4,0.6-5.4,3.3-5.7
	C590.8,110.9,592.5,113.4,591.9,115.9L591.9,115.9z"/>
<path class="st5" d="M576.1,112.3c0.1,0.9-0.3,1.6-1,1.6s-1.1-0.7-1.1-1.5c-0.1-0.9,0.3-1.6,1-1.6
	C575.6,110.8,576,111.5,576.1,112.3z"/>
<path class="st5" d="M567.6,113.1c0.1,0.9-0.3,1.6-1,1.6c-0.6,0-1.1-0.7-1.1-1.5s0.3-1.6,1-1.6C567.1,111.6,567.5,112.2,567.6,113.1
	z"/>
<path class="st8" d="M570.3,112.4c0,0-2.5,4.5-3.2,6.3c1.3,1,3.3,0.4,3.3,0.4L570.3,112.4L570.3,112.4z"/>
<path class="st5" d="M577.9,108.1c-0.1,0-0.1,0.1-0.2,0.1s-0.1,0-0.2-0.1c-0.4-0.3-0.9-0.5-1.4-0.6c-0.5-0.1-1,0-1.5,0.1
	c-0.1,0-0.2,0-0.3,0s-0.2-0.1-0.2-0.2c0-0.1,0-0.1,0-0.2c0-0.1,0-0.1,0-0.2c0-0.1,0-0.1,0.1-0.1c0,0,0.1-0.1,0.1-0.1
	c0.6-0.2,1.3-0.3,1.9-0.2c0.6,0.1,1.2,0.3,1.8,0.7c0,0,0.1,0.1,0.1,0.1c0,0,0,0.1,0.1,0.2c0,0.1,0,0.1,0,0.2s0,0.1-0.1,0.2
	C578.1,108.1,578,108.1,577.9,108.1L577.9,108.1z"/>
<path class="st5" d="M573.5,122c-0.1,0-0.2-0.1-0.2-0.1c0-0.1-0.1-0.2-0.1-0.2s0-0.2,0.1-0.2c0.1-0.1,0.1-0.1,0.2-0.1
	c0.6-0.1,1.3-0.3,1.8-0.6s1-0.8,1.4-1.3c0,0,0.1-0.1,0.1-0.1c0,0,0.1,0,0.1,0s0.1,0,0.1,0c0,0,0.1,0,0.1,0.1
	c0.1,0.1,0.1,0.2,0.1,0.2s0,0.2-0.1,0.2c-0.5,0.6-1,1.1-1.6,1.4S574.2,121.9,573.5,122L573.5,122L573.5,122z"/>
<path class="st7" d="M586.1,116.7C586.1,116.7,586.1,116.7,586.1,116.7c-0.1,0-0.1,0-0.2-0.1c0,0,0-0.1,0-0.1c0,0,0-0.1,0-0.1
	c0-0.8,0.3-1.5,0.7-2.2c0.3-0.6,0.9-1,1.5-1.3c0.3-0.1,0.7-0.1,1,0c0.3,0.1,0.6,0.3,0.9,0.5c0,0,0.1,0.1,0.1,0.2s0,0.1-0.1,0.2
	c0,0,0,0-0.1,0.1s-0.1,0-0.1,0s-0.1,0-0.1,0c0,0,0,0-0.1-0.1c-0.2-0.2-0.4-0.3-0.7-0.4s-0.5-0.1-0.8,0c-0.5,0.2-1,0.6-1.2,1.1
	c-0.4,0.6-0.6,1.3-0.6,2c0,0.1,0,0.1-0.1,0.2S586.2,116.8,586.1,116.7L586.1,116.7z"/>
<path class="st5" d="M563.6,109.7c-0.1,0-0.2-0.1-0.2-0.1c-0.1-0.1-0.1-0.2-0.1-0.3s0-0.2,0.1-0.3c0.4-0.5,0.9-0.9,1.5-1.1
	c0.6-0.2,1.2-0.3,1.9-0.3c0,0,0.1,0,0.2,0.1c0,0,0.1,0.1,0.1,0.1c0,0,0,0.1,0.1,0.2c0,0.1,0,0.1,0,0.2c0,0.1,0,0.1,0,0.2
	c0,0.1-0.1,0.1-0.1,0.1c0,0-0.1,0.1-0.1,0.1c0,0-0.1,0-0.2,0c-0.5,0-1,0-1.5,0.2s-0.9,0.5-1.2,0.9c0,0.1-0.1,0.1-0.2,0.1
	C563.8,109.7,563.7,109.7,563.6,109.7L563.6,109.7z"/>
<path class="st5" d="M589.9,95c-0.8-1.8-3.3-2.1-5.1-1.5c-0.1-2.3-3.2-3.4-5.1-3.2c-1,0-1.9,0.4-2.6,1.1c0.2,0-0.7-1.1-1.2-1.5
	c-0.9-0.8-2-1.3-3.2-1.4c-1.2-0.1-2.4,0.1-3.5,0.7c-1,0.6-1.9,1.6-2.5,2.7c-0.5,1.1-0.8,2.3-0.7,3.6c-0.3-0.3-0.7-0.5-1.1-0.6
	c-0.4-0.1-0.8-0.2-1.3-0.1c-0.4,0.1-0.8,0.2-1.2,0.4s-0.7,0.5-1,0.8c-0.5,0.7-0.7,1.6-0.6,2.5c0.1,0.9,0.5,1.7,1.2,2.3
	c-0.7,0.2-1.4,0.6-1.8,1.2c-0.4,0.6-0.6,1.4-0.4,2.1c0.2,0.7,0.6,1.4,1.2,1.8c0.6,0.4,1.4,0.6,2.1,0.4c0.2,1.7,0.6,3.8,0.8,5.5
	l1.7-6.5c1.1-0.5,1.3-1.1,1.5-2.4c1,1.5,2.4,1.3,4.1,1.1c0.9-0.1,1.7-0.5,2.4-1.1c0.7-0.6,1.2-1.3,1.5-2.2c0.5,0.8,1.2,1.5,2,1.9
	c0.8,0.4,1.8,0.7,2.7,0.6c0.9-0.1,1.8-0.6,2.4-1.3c0.6-0.7,0.9-1.7,0.9-2.6c0.6,0.8,1.5,1.3,2.4,1.4c1,0.2,1.9,0,2.8-0.5
	c0.8-0.6,1.4-1.4,1.6-2.4C590.4,96.9,590.3,95.9,589.9,95L589.9,95z"/>
<path class="st3" d="M602.8,134.4c0,0,7.6,0.2,10.6,8.6c2.8,7.8,9.9,24.9,9.9,24.9l-17,5l-6.8-20.3L602.8,134.4L602.8,134.4z"/>
<path class="st5" d="M575,215.3l10.3,21.9c0,0-16.3,49.1-17.3,54.2c-1,5.1-1.4,69.5-1.4,69.5h18.1l7.2-62.9c0,0,22-53.4,23.6-57.7
	c3-8.1-0.1-19-0.1-19l-5.6-8.1L575,215.3L575,215.3z"/>
<path class="st5" d="M565,226.3c0,2,7.1,69.9,8.2,70.2c1.2,0.2,52.4,56.3,52.4,56.3l14.5-12.8l-37.6-51l-4.1-45.8l-1.5-28.8
	l-32.7,2.4L565,226.3L565,226.3z"/>
<path class="st9" d="M589.9,314.2l0.9-16l10.5-23.4l-7.9,24.7l-0.8,16.9L589.9,314.2z"/>
<path class="st9" d="M570.9,281l14.3-43.8l-5-4.6l1.6,6.3l-11.6,36.9L570.9,281L570.9,281z"/>
<path class="st4" d="M521.3,155.7l22.2,20.4l10.3-19.3c0,0,11.3,11.1,10.9,11.3c-0.4,0.2-13.3,28.4-22.6,23.4
	c-9.3-5.1-25-30.6-25-30.6L521.3,155.7L521.3,155.7z"/>
<path class="st7" d="M543.5,176.1c0,0,1.9,3.1,1.7,6c0.6-1.1,0.8-2.5,0.6-3.7c-0.2-1.4-0.6-2.7-1.4-3.9L543.5,176.1L543.5,176.1z"/>
<path class="st3" d="M563.9,139.5c6.1,3.1,8.5,14.2-4.5,40.8l-15.6-12c2.5-6.7,5-10.1,9-18.2C559.2,137.6,563.9,139.5,563.9,139.5
	L563.9,139.5z"/>
<path class="st3" d="M563.8,139.1c4.3-0.9,21.3-5.4,39.5-4.6l9.6,67.8c0,0,1.9,8.9,4.4,17.7c-17.3,10-41.4,11.6-54.3,6.2
	c0.2,0.3-0.2-7.2-0.8-18.2c-1-19.4-2.4-49.6-2-67.2C560.2,140.1,563.3,139.2,563.8,139.1L563.8,139.1z"/>
<path class="st7" d="M560.8,177.3l-0.6-21.9l-2.8,23.3l2,1.5L560.8,177.3L560.8,177.3z"/>
<path class="st7" d="M607.2,172.7l-1,0.3l-6.2-16.6l4.7,19l3.2,0L607.2,172.7L607.2,172.7z"/>
<path class="st4" d="M523.4,159.2c0,0,1.7-2.7,1.1-5.2s-0.4-4.8-1-6.7c-0.5-1.9-1.7,0.6-1.9,2c-0.3,1.4-0.7,3-1.7,2.6
	c-1-0.4-6.9-7.7-8.4-8.1s-0.9,1.1-0.9,1.1s-1.5-1.7-2.3-1.3c-0.2,0.1-0.6,0.7,0,1.6c1.2,2,4.1,6.1,4.1,6.1c-0.2-0.2-4-5.1-4.7-5.7
	c-0.9-0.9-1.7-0.8-2.2-0.3c-0.7,0.7,3.9,6.9,3.9,7.3c0,0-2.5-3.6-3.8-3.5c-1.3,0.1,0.2,2.5,1.9,4.4c1.5,1.7,4.1,5.4,5.8,7
	c2.1,1.9,4,2.8,6.5,1.7C521.3,161.4,522.5,160.4,523.4,159.2L523.4,159.2z"/>
<path class="st10" d="M514.1,149.6C514.1,149.6,514.1,149.6,514.1,149.6C514.1,149.6,514,149.6,514.1,149.6
	c-1.1-1.6-2.2-3.1-3.3-4.5c0,0,0,0,0,0c0,0,0,0,0-0.1s0,0,0-0.1c0,0,0,0,0,0s0,0,0,0c0,0,0,0,0,0s0,0,0,0s0,0,0,0
	c1.2,1.4,2.2,2.9,3.3,4.4c0,0,0,0.1,0,0.1S514.2,149.5,514.1,149.6L514.1,149.6L514.1,149.6z"/>
<path class="st10" d="M510.3,154.1C510.3,154.1,510.3,154.1,510.3,154.1c-0.1,0-0.1,0-0.1,0c0,0,0,0,0,0s0,0,0,0s0,0,0,0
	c1.4-1.9,3.4-3.4,5.6-4.3c0,0,0.1,0,0.1,0c0,0,0,0,0,0.1c0,0,0,0.1,0,0.1s0,0.1,0,0.1c-2.2,0.8-4.1,2.3-5.5,4.2
	C510.4,154.1,510.4,154.1,510.3,154.1C510.3,154.1,510.3,154.1,510.3,154.1L510.3,154.1z"/>
<path class="st10" d="M519.4,158.5C519.4,158.5,519.3,158.5,519.4,158.5C519.3,158.5,519.3,158.4,519.4,158.5
	c-0.7-0.8-1-1.8-0.9-2.8c0-1,0.5-2,1.1-2.7c0,0,0,0,0.1,0s0.1,0,0.1,0s0,0.1,0,0.1s0,0.1,0,0.1c-0.6,0.7-1,1.6-1.1,2.5
	c0,0.9,0.2,1.9,0.8,2.6c0,0,0,0,0,0c0,0,0,0,0,0s0,0,0,0s0,0,0,0C519.4,158.5,519.4,158.5,519.4,158.5L519.4,158.5z"/>
<path class="st4" d="M622,168.3c0,0,5.1,12.1,7.3,23c1,4.9-3,8.1-7,9.1c-12.7,3.1-41.5,3.1-41.5,3.1l-0.8-8.8l33.1-7.1l-5.9-15
	L622,168.3L622,168.3z"/>
<path class="st5" d="M580.8,205.4l-10.8,1.2c-0.2,0-0.4,0-0.5-0.1s-0.3-0.2-0.5-0.3L552.5,190c-0.2-0.1-0.3-0.3-0.3-0.6
	c-0.1-0.2-0.1-0.4,0-0.6s0.2-0.4,0.3-0.6c0.2-0.1,0.3-0.3,0.6-0.3l9.5-2.4c0.2-0.1,0.4-0.1,0.6,0s0.4,0.2,0.5,0.3l17.8,17.5
	c0.2,0.2,0.3,0.4,0.3,0.6c0.1,0.2,0,0.5,0,0.7c-0.1,0.2-0.2,0.4-0.4,0.6C581.3,205.3,581,205.4,580.8,205.4L580.8,205.4z"/>
<path class="st4" d="M581.8,194.8c0,0-0.3-1.3-5.1-2.7c-3.6-1.1-7.3-4.5-7.8-4.4c-0.6,0.1-1.2,2,0.3,3.6c1.5,1.6,3.1,2.6,2.7,3.2
	c-1,1.5-12.8,0.3-13,1.6c-0.2,1.3,2.1,5,8.4,7.5c6.3,2.5,15,0,15,0L581.8,194.8L581.8,194.8z"/>
<path class="st5" d="M522,339L21.9,350.7v-85.5h504.9L522,339L522,339z"/>
<path class="st11" d="M522,339L21.9,350.7v-85.5h504.9L522,339L522,339z"/>
<path class="st3" d="M2.7,287.1v43.4c0,4.5,1.5,8.9,4.1,12.6c2.7,3.6,6.5,6.3,10.8,7.7l3.5,1.1c2.2,0.7,4.5,1,6.7,1l23.4-0.5
	c-2.5-8.7-3-17.8-1.3-26.7c1.6-8.9,5.2-17.3,10.6-24.6c5.4-7.3,12.3-13.2,20.3-17.4c8-4.2,16.9-6.5,25.9-6.7c9-0.2,18,1.6,26.2,5.4
	c8.2,3.8,15.4,9.4,21.1,16.4s9.7,15.2,11.7,24.1c2,8.8,2,18-0.1,26.8l237.6-5.6c-0.4-2.8-0.6-5.6-0.6-8.4
	c-0.1-7.8,1.4-15.6,4.4-22.8s7.3-13.8,12.9-19.4c5.5-5.5,12.1-9.9,19.3-12.9s15-4.5,22.8-4.5c7.8,0,15.6,1.6,22.8,4.7
	c7.2,3,13.8,7.5,19.2,13.1s9.8,12.2,12.7,19.5c2.9,7.3,4.3,15,4.2,22.9c0,1.1-0.1,2.3-0.1,3.4c0.3-0.1,0.6-0.3,1-0.4l8.1-3.6
	c3.9-1.8,7.3-4.6,9.6-8.3c2.3-3.6,3.6-7.8,3.6-12.1v-88.3c0-4.1-1.1-8.1-3.2-11.6s-5.1-6.3-8.7-8.2l-61.1-32.1
	c-0.5-0.3-1-0.7-1.3-1.3s-0.4-1.2-0.4-1.8s0.3-1.2,0.6-1.7c0.4-0.5,0.9-0.9,1.5-1.1l7.5-2.7c0.4-0.1,0.7-0.4,0.9-0.7
	c0.2-0.3,0.3-0.7,0.3-1.1s-0.2-0.8-0.5-1s-0.6-0.5-1-0.5c-29-4.1-141.9-18.8-201.3-11.6c-68.5,8.4-134,67.8-134,67.8
	c-50.4-1.9-97.4,15.6-117.6,24.4c-3.2,1.4-6.1,3.5-8.5,6.1s-4.2,5.7-5.3,9L4.1,279C3.2,281.6,2.7,284.4,2.7,287.1L2.7,287.1z"/>
<path class="st5" d="M403.4,343.9c-0.4-2.6-0.5-5.2-0.5-7.9c0-1.3,0-2.7,0.1-4l-43-17.6c-2.5-1-5.2-1.5-7.9-1.3L202.6,323
	c-2.4,0.1-4.8,0.8-7,1.9l-28.4,14.6c-0.2,3.4-0.7,6.8-1.4,10L403.4,343.9L403.4,343.9z"/>
<path class="st5" d="M543.3,315v-2.2l-24.3,7.4c1.4,5.1,2.1,10.5,2.1,15.8c0,1.1-0.1,2.3-0.1,3.4c0.3-0.1,0.6-0.3,1-0.4l8.2-3.6
	c3.9-1.8,7.2-4.6,9.6-8.3C542.1,323.5,543.3,319.3,543.3,315L543.3,315z"/>
<path class="st5" d="M9.6,346.1c2.3,2.1,5.1,3.8,8.1,4.7l3.6,1.1c2.2,0.7,4.5,1,6.7,1l23.3-0.5c-0.8-3-1.5-6-1.8-9L9.6,346.1
	L9.6,346.1z"/>
<path class="st5" d="M462.1,271.3c-9.2,0-18.2,1.9-26.6,5.7c-8.4,3.8-15.8,9.3-21.9,16.1c-6.1,6.9-10.6,15-13.3,23.7
	c-2.7,8.8-3.5,18-2.4,27.1l5.6-0.1c-1.1-8-0.6-16.2,1.6-24.1s6-15.1,11.1-21.4s11.5-11.5,18.7-15.2c7.2-3.7,15.1-5.9,23.2-6.5
	c8.1-0.5,16.2,0.6,23.9,3.3c7.6,2.7,14.7,7,20.6,12.6c5.9,5.6,10.6,12.3,13.8,19.8c3.2,7.5,4.8,15.5,4.8,23.6c0,1.1-0.1,2.3-0.1,3.4
	c0.3-0.1,0.6-0.3,1-0.4l4.7-2.1V336c0-17.2-6.8-33.6-19-45.8C495.7,278.1,479.2,271.3,462.1,271.3L462.1,271.3L462.1,271.3z"/>
<path class="st5" d="M108.2,271.3c-9.9,0-19.7,2.3-28.5,6.6S63,288.6,56.9,296.4s-10.2,17-12.2,26.6c-2,9.7-1.7,19.7,0.8,29.3
	l5.7-0.1c-2.5-8.7-2.9-17.8-1.3-26.7c1.6-8.9,5.2-17.3,10.6-24.5c5.4-7.3,12.3-13.2,20.3-17.4s16.9-6.4,25.9-6.6
	c9-0.2,18,1.6,26.2,5.4s15.4,9.4,21.1,16.4s9.7,15.2,11.8,24c2,8.8,2,17.9,0,26.7l5.7-0.1c2-9.4,1.9-19.2-0.4-28.5
	c-2.3-9.4-6.6-18.1-12.6-25.6c-6.1-7.5-13.7-13.5-22.4-17.7C127.4,273.4,117.8,271.3,108.2,271.3L108.2,271.3L108.2,271.3z"/>
<path class="st3" d="M164.5,221.5c-0.6,0.5-1,1.1-1.2,1.9c-0.2,0.7-0.3,1.5-0.2,2.2s0.4,1.4,0.9,2s1.1,1.1,1.8,1.3l24.7,6.9
	c2.2,0.6,4.5,0.8,6.7,0.5l183.2-22.7c4.6-0.6,8.8-3,11.7-6.5l24-28c0.8-1,1.3-2.2,1.4-3.4c0.3-3.2-1.7-6.1-4.5-6.4
	c-43.9-5.8-99.3-11.1-134.3-6.9C232.9,168.1,186.7,202.6,164.5,221.5L164.5,221.5z"/>
<path class="st12" d="M165.3,221.5c-0.6,0.5-1,1.1-1.2,1.9c-0.2,0.7-0.3,1.5-0.2,2.2s0.4,1.4,0.9,2s1.1,1.1,1.8,1.3l24.7,6.9
	c2.2,0.6,4.5,0.8,6.7,0.5l179.1-12.3c4.5-0.6,11.4-8.8,16.2-15.4l23.6-29.5c0.8-1,1.3-2.1,1.5-3.4c0.3-3.2-1.7-6.1-4.5-6.4
	c-43.9-5.8-99.3-11.1-134.3-6.8C233.8,168.1,187.6,202.6,165.3,221.5L165.3,221.5z"/>
<g class="st13">
	<path class="st1" d="M285,239c-0.5-0.2-1-0.6-1.3-1.1c-0.2-0.5-0.3-1.1-0.1-1.7c0.3-0.7,0.7-1.3,1.3-1.8c0.6-0.4,1.3-0.7,2.1-0.7
		l21.8-0.9c0.3,0,0.6,0,0.9,0.1c0.6,0.2,1,0.6,1.3,1.2s0.3,1.2,0.1,1.7c-0.3,0.7-0.7,1.3-1.3,1.8c-0.6,0.4-1.3,0.7-2.1,0.7
		l-21.8,0.9C285.5,239.1,285.3,239.1,285,239L285,239z"/>
</g>
<path class="st3" d="M447.1,176.5c-0.9,0.8-1.5,2-1.5,3.2c-0.1,1.2,0.4,2.4,1.2,3.4l5.2,5.6c0.6,0.6,1.4,1.1,2.2,1.3l63.3,17.6
	c1.1,0.3,2.2,0.4,3.4,0.4h12.6c-0.7-0.4-1.3-0.8-2-1.2l-61.1-32.2c-0.7-0.4-1.3-1-1.6-1.8c-0.3-0.8-0.2-1.6,0.2-2.4l-19.8,5
	C448.3,175.7,447.6,176,447.1,176.5z"/>
<path class="st14" d="M52.8,251.7l-21.6-2.4l-12.4,5.1c-1.3,0.5-2.4,1.3-3.4,2.4s-1.6,2.3-1.9,3.6c-0.4,1.6-0.2,3.3,0.6,4.7l0.2,0.4
	c0.7,1.2,1.7,2.1,2.9,2.7c1.2,0.6,2.6,0.8,3.9,0.6l12.5-1.7c1.2-0.2,2.3-0.7,3.3-1.4l14.4-10.9L52.8,251.7L52.8,251.7z"/>
<path class="st3" d="M142.5,219l3.4,0.9c1.3,0.4,2.7,0.4,4,0.1c1.3-0.3,2.6-0.9,3.6-1.8c20-16.9,54.8-42.9,92.4-55
	c0.1,0,0.2-0.1,0.3-0.2s0.1-0.2,0.1-0.4s0-0.3-0.1-0.4c-0.1-0.1-0.2-0.2-0.3-0.3l-4.7-2.4C187.3,178.4,142.5,219,142.5,219
	L142.5,219z"/>
<path class="st12" d="M142.5,219l3.4,0.9c1.3,0.4,2.7,0.4,4,0.1c1.3-0.3,2.6-0.9,3.6-1.8c20-16.9,54.8-42.9,92.4-55
	c0.1,0,0.2-0.1,0.3-0.2s0.1-0.2,0.1-0.4s0-0.3-0.1-0.4c-0.1-0.1-0.2-0.2-0.3-0.3l-4.7-2.4C187.3,178.4,142.5,219,142.5,219
	L142.5,219z"/>
<path class="st7" d="M347.9,241.9l-182.1,13l3.4,22.5c1.1,6.9,3.6,13.5,7.5,19.2l15.2,22.8l155.4-21l73.5-56.4L347.9,241.9
	L347.9,241.9z"/>
<path class="st5" d="M462,385.3c27.2,0,49.3-22.1,49.3-49.3s-22.1-49.3-49.3-49.3s-49.3,22.1-49.3,49.3S434.8,385.3,462,385.3z"/>
<path class="st9" d="M462,366.2c16.7,0,30.2-13.5,30.2-30.2s-13.5-30.2-30.2-30.2s-30.2,13.5-30.2,30.2S445.4,366.2,462,366.2z"/>
<g class="st13">
	<path class="st1" d="M462.1,308.8L462.1,308.8c-1.3,0-2.4,1.1-2.4,2.4v15.5c0,1.3,1.1,2.4,2.4,2.4l0,0c1.3,0,2.4-1.1,2.4-2.4v-15.5
		C464.5,309.9,463.4,308.8,462.1,308.8z"/>
</g>
<g class="st13">
	<path class="st1" d="M462.1,342.9L462.1,342.9c-1.3,0-2.4,1.1-2.4,2.4v15.5c0,1.3,1.1,2.4,2.4,2.4l0,0c1.3,0,2.4-1.1,2.4-2.4v-15.5
		C464.5,343.9,463.4,342.9,462.1,342.9z"/>
</g>
<g class="st13">
	<path class="st1" d="M471.3,333.5c-0.6,0.3-1.2,0.4-1.8,0.2c-0.6-0.2-1.1-0.6-1.5-1.1c-0.3-0.5-0.4-1.2-0.2-1.8s0.6-1.1,1.1-1.5
		l13.4-7.8c0.6-0.3,1.2-0.4,1.8-0.2s1.1,0.6,1.5,1.1c0.3,0.6,0.4,1.2,0.2,1.8c-0.2,0.6-0.6,1.1-1.1,1.5L471.3,333.5L471.3,333.5
		L471.3,333.5z"/>
</g>
<g class="st13">
	<path class="st1" d="M441.8,350.4c-0.5,0.3-1.2,0.4-1.8,0.2c-0.6-0.2-1.1-0.6-1.5-1.1c-0.2-0.3-0.3-0.6-0.3-0.9
		c0-0.3,0-0.6,0.1-0.9c0.1-0.3,0.2-0.6,0.4-0.8c0.2-0.2,0.4-0.5,0.7-0.6l13.4-7.8c0.3-0.2,0.6-0.3,0.9-0.3c0.3,0,0.6,0,0.9,0.1
		s0.6,0.2,0.9,0.4c0.2,0.2,0.5,0.4,0.6,0.7s0.3,0.6,0.3,0.9s0,0.6-0.1,0.9c-0.1,0.3-0.2,0.6-0.4,0.9c-0.2,0.2-0.4,0.5-0.7,0.6
		L441.8,350.4L441.8,350.4L441.8,350.4z"/>
</g>
<g class="st13">
	<path class="st1" d="M482.3,350.5l-13.4-7.8c-0.6-0.3-1-0.9-1.1-1.5c-0.2-0.6-0.1-1.3,0.2-1.8c0.3-0.5,0.9-1,1.5-1.1
		c0.6-0.2,1.3-0.1,1.8,0.2l13.4,7.8c0.5,0.3,1,0.9,1.1,1.5c0.2,0.6,0.1,1.3-0.2,1.8c-0.2,0.3-0.4,0.5-0.6,0.7
		c-0.2,0.2-0.5,0.3-0.9,0.4c-0.3,0.1-0.6,0.1-1,0.1S482.5,350.6,482.3,350.5L482.3,350.5z"/>
</g>
<g class="st13">
	<path class="st1" d="M456.1,332.6c-0.3,0.5-0.9,1-1.5,1.1s-1.3,0.1-1.8-0.2l-13.4-7.8c-0.3-0.2-0.5-0.4-0.7-0.6
		c-0.2-0.2-0.3-0.5-0.4-0.8c-0.1-0.3-0.1-0.6-0.1-0.9c0-0.3,0.1-0.6,0.3-0.9c0.3-0.5,0.9-1,1.5-1.1c0.6-0.2,1.3-0.1,1.8,0.2
		l13.4,7.8c0.3,0.2,0.5,0.4,0.7,0.6c0.2,0.2,0.3,0.5,0.4,0.9c0.1,0.3,0.1,0.6,0.1,0.9S456.2,332.3,456.1,332.6L456.1,332.6z"/>
</g>
<path class="st5" d="M458,336c0-1.1,0.4-2.1,1.2-2.9s1.8-1.2,2.9-1.2c0.8,0,1.6,0.2,2.3,0.7c0.7,0.5,1.2,1.1,1.5,1.8
	c0.3,0.7,0.4,1.6,0.2,2.4s-0.5,1.5-1.1,2.1s-1.3,1-2.1,1.1c-0.8,0.2-1.6,0.1-2.4-0.2c-0.7-0.3-1.4-0.8-1.8-1.5
	C458.2,337.6,458,336.8,458,336L458,336L458,336z"/>
<path class="st5" d="M108.2,385.3c27.2,0,49.3-22.1,49.3-49.3s-22.1-49.3-49.3-49.3S58.9,308.8,58.9,336S80.9,385.3,108.2,385.3z"/>
<path class="st9" d="M108.2,366.2c16.7,0,30.2-13.5,30.2-30.2s-13.5-30.2-30.2-30.2S78,319.3,78,336S91.5,366.2,108.2,366.2z"/>
<g class="st13">
	<path class="st1" d="M108.2,308.8L108.2,308.8c-1.3,0-2.4,1.1-2.4,2.4v15.5c0,1.3,1.1,2.4,2.4,2.4l0,0c1.3,0,2.4-1.1,2.4-2.4v-15.5
		C110.6,309.9,109.5,308.8,108.2,308.8z"/>
</g>
<g class="st13">
	<path class="st1" d="M108.2,342.9L108.2,342.9c-1.3,0-2.4,1.1-2.4,2.4v15.5c0,1.3,1.1,2.4,2.4,2.4l0,0c1.3,0,2.4-1.1,2.4-2.4v-15.5
		C110.6,343.9,109.5,342.9,108.2,342.9z"/>
</g>
<g class="st13">
	<path class="st1" d="M117.4,333.5c-0.3,0.2-0.6,0.3-0.9,0.3c-0.3,0-0.6,0-0.9-0.1c-0.3-0.1-0.6-0.2-0.8-0.4
		c-0.2-0.2-0.4-0.4-0.6-0.7c-0.2-0.3-0.3-0.6-0.3-0.9c0-0.3,0-0.6,0.1-0.9c0.1-0.3,0.2-0.6,0.4-0.9c0.2-0.2,0.4-0.5,0.7-0.6
		l13.4-7.8c0.3-0.2,0.6-0.3,0.9-0.3c0.3,0,0.6,0,0.9,0.1s0.6,0.2,0.9,0.4c0.2,0.2,0.5,0.4,0.6,0.7c0.2,0.3,0.3,0.6,0.3,0.9
		c0,0.3,0,0.6-0.1,0.9s-0.2,0.6-0.4,0.9c-0.2,0.2-0.4,0.5-0.7,0.6L117.4,333.5L117.4,333.5L117.4,333.5z"/>
</g>
<g class="st13">
	<path class="st1" d="M84.6,349.5c-0.2-0.3-0.3-0.6-0.3-0.9c0-0.3,0-0.6,0.1-0.9c0.1-0.3,0.2-0.6,0.4-0.8c0.2-0.2,0.4-0.5,0.7-0.6
		l13.4-7.8c0.3-0.2,0.6-0.3,0.9-0.3s0.6,0,0.9,0.1s0.6,0.2,0.8,0.4s0.5,0.4,0.6,0.7c0.3,0.6,0.4,1.2,0.2,1.8
		c-0.2,0.6-0.6,1.1-1.1,1.5L88,350.4c-0.6,0.3-1.2,0.4-1.8,0.3S85,350.1,84.6,349.5L84.6,349.5z"/>
</g>
<g class="st13">
	<path class="st1" d="M131.7,349.6c-0.2,0.3-0.4,0.5-0.6,0.7c-0.2,0.2-0.5,0.3-0.8,0.4s-0.6,0.1-0.9,0.1c-0.3,0-0.6-0.1-0.9-0.3
		l-13.4-7.8c-0.6-0.3-0.9-0.9-1.1-1.5c-0.2-0.6-0.1-1.3,0.2-1.8c0.3-0.5,0.8-1,1.5-1.1s1.3-0.1,1.8,0.2l13.4,7.8
		c0.6,0.3,1,0.9,1.1,1.5C132.1,348.4,132,349,131.7,349.6L131.7,349.6L131.7,349.6z"/>
</g>
<g class="st13">
	<path class="st1" d="M102.2,332.6c-0.2,0.3-0.4,0.5-0.6,0.7c-0.2,0.2-0.5,0.3-0.8,0.4c-0.3,0.1-0.6,0.1-0.9,0
		c-0.3,0-0.6-0.1-0.9-0.3l-13.4-7.8c-0.3-0.2-0.5-0.4-0.7-0.6c-0.2-0.2-0.3-0.5-0.4-0.8c-0.1-0.3-0.1-0.6-0.1-0.9
		c0-0.3,0.1-0.6,0.3-0.9c0.3-0.6,0.8-1,1.5-1.1c0.6-0.2,1.3-0.1,1.8,0.2l13.4,7.8c0.6,0.3,1,0.9,1.1,1.5
		C102.6,331.3,102.5,332,102.2,332.6L102.2,332.6L102.2,332.6z"/>
</g>
<path class="st5" d="M108.2,331.9c0.8,0,1.6,0.2,2.3,0.7c0.7,0.5,1.2,1.1,1.5,1.8c0.3,0.7,0.4,1.6,0.2,2.4c-0.2,0.8-0.5,1.5-1.1,2.1
	s-1.3,1-2.1,1.1s-1.6,0.1-2.3-0.2s-1.4-0.8-1.8-1.5c-0.4-0.7-0.7-1.5-0.7-2.3c0-1.1,0.4-2.1,1.2-2.9
	C106.1,332.3,107.1,331.9,108.2,331.9L108.2,331.9z"/>
<path class="st10" d="M538.1,243c0.4-0.1,0.8-0.3,1.1-0.6c0.3-0.3,0.6-0.6,0.8-0.9s0.3-0.8,0.3-1.2c0-0.4,0-0.8-0.1-1.2
	c-0.6-10.4-2.8-19.6-9.1-26c-0.2-0.7-0.6-1.3-1.2-1.7c-0.6-0.4-1.3-0.6-2-0.5l-37.6,3.6c-0.7,0.1-1.3,0.3-1.8,0.8
	c-0.3,0.3-0.5,0.6-0.7,1c-0.2,0.4-0.3,0.8-0.3,1.2c0,0.4,0,0.8,0.2,1.2c0.1,0.4,0.4,0.7,0.6,1l10.8,11.6c0.4,0.4,0.9,0.7,1.4,0.9
	l36,10.9C536.9,243.2,537.5,243.2,538.1,243L538.1,243z"/>
<path class="st5" d="M163.1,223.9c-0.3,1-0.1,2.1,0.4,3.1s1.3,1.7,2.3,2l24.7,6.9c2.2,0.7,4.5,1.1,6.9,1.2l7.8-0.5l-7.3-39.6
	c-16.9,11.1-18.1,11.6-33.3,24.6C163.8,222.1,163.3,222.9,163.1,223.9L163.1,223.9z"/>
<path class="st5" d="M324,161.2l-15.5,67.7l20.3-1.5l9.3-65.6C333.4,161.6,328.7,161.4,324,161.2L324,161.2z"/>
<path class="st5" d="M388.5,214.8l28.5-35.6c0.8-1,1.4-2.2,1.5-3.5c0.3-3.2-1.7-6-4.5-6.4c-5.8-0.8-12.1-1.6-18.3-2.3"/>
<path class="st3" d="M185.6,230.7c-1.2,0-2.3-0.2-3.4-0.6s-2.1-1.1-2.9-1.9c-0.8-0.8-1.5-1.8-2-2.9c-0.5-1.1-0.7-2.2-0.7-3.4
	c0-2,0.6-4,1.9-5.6c1.3-1.6,3-2.7,5-3.2l11.9-2.8l3,20l-12.6,0.5L185.6,230.7L185.6,230.7z"/>
<path class="st10" d="M194.9,230.4l3.5-0.1l-3-19.9l-3.4,0.8L194.9,230.4L194.9,230.4z"/>
<path class="st15" d="M312.9,316L312.9,316c0,0-0.1,0-0.1,0s0,0-0.1-0.1c0,0,0-0.1,0-0.1s0-0.1,0-0.1c0.1-0.6,13.1-61.7,14.8-70
	c0.6-3.2,0.9-9.3,0.7-18.2c0-0.1,0-0.1,0.1-0.2c0,0,0.1-0.1,0.2-0.1s0.1,0,0.2,0.1c0,0,0.1,0.1,0.1,0.2c0.2,8.9,0,15.1-0.7,18.3
	c-1.7,8.3-14.7,69.4-14.8,70c0,0,0,0.1-0.1,0.1S313,316,312.9,316L312.9,316z"/>
<path class="st15" d="M195.6,325.1c0,0-0.1,0-0.1,0s-0.1,0-0.1-0.1c-0.2-0.2-17-25.1-22.7-35.5c-5.9-10.7-9.8-62-9.9-64.1
	c0-0.1,0-0.1,0.1-0.2s0.1-0.1,0.2-0.1c0,0,0.1,0,0.1,0c0,0,0.1,0,0.1,0.1c0,0,0,0.1,0.1,0.1c0,0,0,0.1,0,0.1c0,0.5,4,53.3,9.9,63.9
	c5.8,10.4,22.5,35.2,22.7,35.5c0,0,0,0,0,0.1c0,0,0,0.1,0,0.1s0,0.1,0,0.1c0,0,0,0-0.1,0.1C195.7,325.1,195.7,325.1,195.6,325.1
	L195.6,325.1z"/>
<path class="st15" d="M31.2,249.6c0,0-0.1,0-0.1-0.1c0,0-0.1-0.1-0.1-0.1c0-0.1,0-0.1,0-0.2c0-0.1,0.1-0.1,0.1-0.1
	c12.9-5.3,54.2-15.2,63.8-16.8c12.2-2,53.9-12.2,54.3-12.4c0,0,0.1,0,0.1,0s0.1,0,0.1,0c0,0,0.1,0,0.1,0.1c0,0,0,0.1,0,0.1
	c0,0,0,0.1,0,0.1c0,0,0,0.1,0,0.1c0,0,0,0.1-0.1,0.1s-0.1,0-0.1,0c-0.4,0.1-42.1,10.4-54.4,12.4c-9.4,1.5-51.2,11.6-63.7,16.7
	C31.2,249.6,31.2,249.6,31.2,249.6L31.2,249.6z"/>
<path class="st16" d="M447.1,176.5c-0.9,0.8-1.5,2-1.5,3.2c-0.1,1.2,0.4,2.4,1.2,3.4l5.2,5.6c0.6,0.6,1.4,1.1,2.2,1.3l63.3,17.6
	c1.1,0.3,2.2,0.4,3.4,0.4h12.6c-0.7-0.4-1.3-0.8-2-1.2l-61.1-32.2c-0.7-0.4-1.3-1-1.6-1.8c-0.3-0.8-0.2-1.6,0.2-2.4l-19.8,5
	C448.3,175.7,447.6,176,447.1,176.5z"/>
<path class="st5" d="M209.3,217c-0.6,0.3-7.3,7.3-7.3,7.3l1.3,8.6l8.4-8.7L209.3,217z"/>
<path class="st5" d="M219.4,234.9c-0.7,0.4-1.5,0.4-2.3,0.1s-1.4-0.8-1.7-1.5l-13.4-27.2c-0.2-0.4-0.3-0.7-0.3-1.1
	c0-0.4,0-0.8,0.1-1.2c0.1-0.4,0.3-0.7,0.6-1c0.3-0.3,0.6-0.5,0.9-0.7c0.4-0.2,0.7-0.3,1.1-0.3s0.8,0,1.2,0.1c0.4,0.1,0.7,0.3,1,0.6
	c0.3,0.3,0.5,0.6,0.7,0.9l13.4,27.2c0.4,0.7,0.4,1.5,0.2,2.3S220.1,234.6,219.4,234.9L219.4,234.9z"/>
<path class="st17" d="M234,202.2c0,0,6.7,26.6,10.6,27.6c7.1,1.8,31.4-0.2,30.9-1l-1-12.2c0,0-24.5,4.1-24.3,3.6l-9.2-20.7
	L234,202.2L234,202.2z"/>
<path class="st17" d="M240.1,201.2c0,0,2.2-2,2.2-4.5c0.1-2.5,0.8-4.4,0.7-6.3c-0.1-1.8-1.6,0.1-2.2,1.3c-0.6,1.2-1.3,2.6-2.1,2
	s-4.4-8.6-5.7-9.4s-1.1,0.8-1.1,0.8s-0.9-1.9-1.8-1.8c-0.2,0-0.7,0.5-0.4,1.4c0.6,2.1,2.2,6.5,2.2,6.5c-0.1-0.3-2.4-5.5-2.9-6.3
	c-0.6-0.9-1.4-1.1-1.9-0.8c-0.8,0.5,1.9,7.2,1.8,7.5c0,0-1.4-3.9-2.6-4.1s-0.4,2.3,0.6,4.4c0.9,1.9,2.4,5.9,3.6,7.7
	c1.5,2.2,3,3.4,5.5,3.1C237.6,202.6,239,202,240.1,201.2L240.1,201.2z"/>
<path class="st10" d="M234,190.2C234,190.2,234,190.2,234,190.2c-0.1,0-0.1-0.1-0.1-0.1c-0.6-1.6-1.2-3.2-1.9-4.8c0,0,0,0,0-0.1
	s0,0,0-0.1s0,0,0,0s0,0,0,0s0,0,0,0c0,0,0,0,0,0s0,0,0,0c0,0,0,0,0,0c0.7,1.6,1.4,3.2,1.9,4.8c0,0,0,0,0,0
	C234.1,190.1,234.1,190.1,234,190.2C234.1,190.2,234.1,190.2,234,190.2C234.1,190.2,234.1,190.2,234,190.2L234,190.2L234,190.2z"/>
<path class="st10" d="M229.5,193.4C229.5,193.4,229.5,193.4,229.5,193.4c-0.1,0-0.1,0-0.1,0c0,0,0-0.1,0-0.1s0-0.1,0-0.1
	c1.8-1.4,3.9-2.3,6.1-2.6c0,0,0,0,0.1,0c0,0,0,0,0,0c0,0,0,0,0,0c0,0,0,0,0,0.1c0,0,0,0,0,0s0,0,0,0c0,0,0,0,0,0c0,0,0,0,0,0
	C233.3,191.1,231.3,192,229.5,193.4L229.5,193.4L229.5,193.4z"/>
<path class="st10" d="M236.6,199.5C236.6,199.5,236.6,199.5,236.6,199.5c-0.1,0-0.1-0.1-0.1-0.1c-0.4-0.9-0.4-1.8-0.1-2.7
	c0.3-0.9,0.9-1.7,1.7-2.2c0,0,0,0,0,0c0,0,0,0,0,0s0,0,0,0s0,0,0,0c0,0,0,0,0,0c0,0,0,0,0,0s0,0,0,0s0,0,0,0
	c-0.7,0.5-1.3,1.2-1.6,2.1c-0.3,0.8-0.2,1.8,0.1,2.6c0,0,0,0.1,0,0.1S236.8,199.5,236.6,199.5L236.6,199.5L236.6,199.5z"/>
<path class="st5" d="M303.4,214.7c-4.5-5.9-11.5-5.3-16.1-4.5l-9.1,1.5c-0.3,0-0.6,0.1-0.9,0.2l-2.1,0.6l-19.5,6.2l4.7,12.5l6.4-0.8
	l-1.1,1.7l6.2-0.4l34.1-1.8v-6.9C306.2,220.1,305.2,217.2,303.4,214.7L303.4,214.7z"/>
<path class="st17" d="M301.6,224.5c0,0-4.3,28.6-7.3,31.7c-7.2,7.2-33.9-12.7-33.9-12.7l0.8-7.7l23,9.5l4.3-24.3L301.6,224.5
	L301.6,224.5z"/>
<path class="st5" d="M305.1,222.6c-0.2,0.7-2,20.7-2,20.7l-19.5-1.8c0,0,1-5.5,2.5-15.2c1.5-10.1,2.4-15.2,7.5-16
	C302.9,208.6,305.1,222.6,305.1,222.6L305.1,222.6z"/>
<path class="st5" d="M298.5,177.3c3,5.2,4,8.3,4.2,13.2c0.3,5.8,0,10.9-1.2,12.4c-1.7,1.9-20,3.8-30.3,3.4c-0.4,0-0.7-3.3-0.7-3.3
	s-1.5,3.2-1.9,3.2c-2.8-0.1-4.6-0.2-4.6-0.2s2.3-4.8,5.2-22c1.4-8.4,9.9-11.8,14.9-12.4C292.4,170.5,298.5,177.4,298.5,177.3
	L298.5,177.3z"/>
<path class="st5" d="M274.1,193.6c-2.7-4.6-5.4-17.2,5.9-21c14-4.8,20.2,4.1,21.5,12.9c1.2,8.8-3.8,15.5-13,14.9
	C279.2,199.7,276,196.8,274.1,193.6L274.1,193.6z"/>
<path class="st17" d="M293.5,194.3l-8.3,7.6l-1.6,1.7c0.5,1.2,0.8,2.4,1,3.6c0.1,1.3-0.2,2.6-1,3.6l-1.9,4.2c4.1-3.2,13.6-5,13.6-5
	C293.8,204.9,293.2,199.6,293.5,194.3L293.5,194.3z"/>
<path class="st7" d="M284.7,207.6c2.2-1.2,4.8-3.3,4.5-5.9c0-0.9-0.2-1.9-0.5-2.8l-4.7,5.6C284.4,205.6,284.6,206.6,284.7,207.6z"/>
<path class="st17" d="M296.2,185.9c-1.1,8.1-1.4,11.5-5.8,15.6c-6.6,6.1-16.2,3.5-17.5-4.6c-1.2-7.3,0.9-19.3,9-22.3
	c1.7-0.7,3.6-0.9,5.5-0.7c1.8,0.3,3.6,1,5,2.2s2.6,2.7,3.2,4.4S296.5,184,296.2,185.9L296.2,185.9z"/>
<path class="st5" d="M285.9,188.3c-0.1,0.8-0.6,1.5-1.2,1.4c-0.6,0-1-0.7-0.9-1.5c0.1-0.8,0.6-1.5,1.2-1.4
	C285.5,186.8,285.9,187.5,285.9,188.3z"/>
<path class="st5" d="M277.4,187.8c-0.1,0.8-0.6,1.4-1.2,1.4c-0.6,0-1-0.7-0.9-1.4c0.1-0.8,0.6-1.4,1.2-1.4
	C277.1,186.3,277.5,187,277.4,187.8L277.4,187.8z"/>
<path class="st5" d="M287.1,185.3c0,0-0.1,0-0.2,0c0,0-0.1,0-0.1-0.1c-0.4-0.3-0.9-0.5-1.4-0.6c-0.5-0.1-1-0.1-1.5,0
	c0,0-0.1,0-0.2,0c0,0-0.1,0-0.1,0c0,0-0.1-0.1-0.1-0.1c0,0-0.1-0.1-0.1-0.1c0-0.1,0-0.2,0-0.3c0.1-0.1,0.1-0.2,0.2-0.2
	c0.6-0.2,1.3-0.2,1.9-0.1c0.6,0.1,1.2,0.4,1.8,0.8c0,0,0.1,0.1,0.1,0.1s0,0.1,0,0.1s0,0.1,0,0.1c0,0.1,0,0.1-0.1,0.1
	C287.3,185.2,287.2,185.3,287.1,185.3L287.1,185.3z"/>
<path class="st5" d="M274.8,183.7c-0.1-0.1-0.1-0.1-0.2-0.2s0-0.2,0-0.3c0-0.1,0.1-0.2,0.2-0.2c0.6-0.2,1.3-0.3,1.9-0.2
	c0.6,0.1,1.2,0.3,1.8,0.7c0,0,0.1,0.1,0.1,0.1c0,0.1,0,0.1,0,0.1s0,0.1,0,0.1c0,0.1,0,0.1-0.1,0.1c-0.1,0.1-0.2,0.1-0.3,0.1
	s-0.2,0-0.3-0.1c-0.4-0.3-0.9-0.5-1.4-0.5c-0.5-0.1-1,0-1.5,0.1C274.9,183.7,274.8,183.7,274.8,183.7L274.8,183.7z"/>
<path class="st5" d="M289.7,178.2c-2.7,2.6-1.9,12.9,5.3,14.6C303.5,191.3,297.8,170.6,289.7,178.2z"/>
<path class="st5" d="M279.2,195.4c0.5,1,1,2,1.3,3.1l0.6-0.1c2.6-0.5,3.7-1.6,4-2.6c0.2-0.5,0.2-1.1,0.1-1.6c0-0.3-0.1-0.6-0.2-0.9
	c-1.2,1.1-3.6,1.7-4.9,2C279.6,195.4,279.2,195.4,279.2,195.4L279.2,195.4z"/>
<path class="st1" d="M280.1,195.2l0.4,0.9c2.5-0.5,4.1-1.1,4.8-2c0-0.3-0.1-0.6-0.2-0.9C283.8,194.3,281.4,194.9,280.1,195.2z"/>
<path class="st18" d="M281.1,198.4c2.6-0.5,3.7-1.6,4-2.6c-1,0.2-1.9,0.6-2.8,1.1C281.8,197.2,281.4,197.7,281.1,198.4z"/>
<path class="st19" d="M279.7,187.3c-0.9,1.9-2,3.7-3.4,5.3c1,1.1,2.9,0.6,2.9,0.6L279.7,187.3L279.7,187.3z"/>
<path class="st5" d="M283.4,186.3l1.8,0.5C284.3,187.8,283.4,186.3,283.4,186.3z"/>
<path class="st5" d="M275.1,185.9l1.8,0.5C276,187.3,275.1,185.9,275.1,185.9z"/>
<path class="st5" d="M282,172.7c-3.3,0.9-6.9,6.3-7.6,8.4c4.5,0.9,17-2.8,17-2.8s8.1,2.6,4.1-1.7C291.6,172.3,282,172.7,282,172.7
	L282,172.7z"/>
<path class="st17" d="M298.3,192.5c-0.9,1.4-2.4,2.5-4.1,2.9c-2.2,0.4-3.1-3.1-2.3-5.2c0.4-0.9,1.1-1.7,2-2.2c0.9-0.5,2-0.6,3-0.4
	C298.9,188.2,299.5,190.7,298.3,192.5z"/>
<path class="st5" d="M260.7,205.2l-0.2-0.4c3-1.8,5.9-8.9,7.2-12c1.2-3.4,2.1-6.9,2.6-10.5l0.5,0.1c-0.5,3.6-1.4,7.1-2.6,10.5
	C266.7,196.3,263.8,203.3,260.7,205.2L260.7,205.2z"/>
<path class="st3" d="M293.6,195.2c0,0.3,0.1,0.6,0.2,0.9s0.4,0.5,0.6,0.6c0.3,0.1,0.6,0.2,0.9,0.1s0.6-0.2,0.8-0.4
	c0.2-0.2,0.4-0.5,0.5-0.8c0.1-0.3,0.1-0.6,0-0.9c-0.1-0.3-0.3-0.5-0.5-0.7c-0.2-0.2-0.5-0.3-0.8-0.3c-0.2,0-0.4,0-0.6,0.1
	c-0.2,0.1-0.4,0.2-0.5,0.3c-0.1,0.1-0.3,0.3-0.4,0.5C293.7,194.8,293.6,195,293.6,195.2L293.6,195.2z"/>
<path class="st20" d="M293.5,192.5C293.5,192.5,293.4,192.5,293.5,192.5c-0.1,0-0.1-0.1-0.2-0.1c0,0,0-0.1,0-0.1c0,0,0-0.1,0-0.1
	c0-0.4,0.2-0.8,0.4-1.1c0.2-0.4,0.5-0.6,0.8-0.9c0.3-0.2,0.7-0.4,1.1-0.4c0.4-0.1,0.8,0,1.2,0.1c0.1,0,0.1,0.1,0.1,0.1
	c0,0.1,0,0.1,0,0.2c0,0,0,0.1,0,0.1s0,0-0.1,0.1c0,0-0.1,0-0.1,0s-0.1,0-0.1,0c-0.3-0.1-0.6-0.1-1-0.1c-0.3,0-0.6,0.2-0.9,0.3
	s-0.5,0.4-0.7,0.7c-0.2,0.3-0.3,0.6-0.3,0.9c0,0,0,0.1,0,0.1c0,0,0,0.1-0.1,0.1c0,0,0,0-0.1,0.1S293.5,192.5,293.5,192.5
	L293.5,192.5z"/>
<path class="st17" d="M270.3,241.1l-9.1-5.3l-2.5-3.2c0,0-2.5-3-4.6-3.2c-1,0-2.1,0.2-3,0.6c0,0-2.4,1.5-0.9,3.8
	c0,0-2.4,1.2-0.8,3.8c0,0-2.2,0.1-0.3,2.4c0.7,0.9,1.7,1.6,2.7,2.2s2.2,0.9,3.3,0.9c1.3,0.1,2.7,0,4-0.4l10,6.6L270.3,241.1
	L270.3,241.1z"/>
</svg>
